<?xml version="1.0" encoding="UTF-8"?>
<svg id="Layer_1" data-name="Layer 1" xmlns="http://www.w3.org/2000/svg" viewBox="0 0 2599 1733">
  <defs>
    <style>
      .cls-1 {
        fill: #fff;
      }

      .cls-2 {
        fill: #dad8d8;
      }

      .cls-3 {
        fill: #0c801c;
      }
    </style>
  </defs>
  <rect class="cls-1" y="-1" width="2598.08" height="1732.05"/>
  <path class="cls-2" d="M342.74,518.33c4.57,0,5.13,1.66,9.05,0,3.92-1.64,15.48-9.28,19.4-10.33,3.91-1.04,6.43,.34,.66,3.56-5.79,3.21-17.36,10.17-15.29,9.64,2.05-.53,7.92-3.03,16.22-6.95,8.3-3.91,7.54-2.17,9.68-6.34,2.15-4.16,3.27-6.34,3.27-6.34,0,0,13.14,13.46,14.36,13.99,1.21,.52,1.69-.09,2.34-1.74,.65-1.66,2.05-4,3.92-3.21,1.86,.79,.27,3.99,1.39,4.43,1.12,.43,2.98-.08,6.44-1.21,3.45-1.13,1.68-3.64,1.68-3.64,0,0-.37-.1,3.64-.44,4.01-.34,16.59,4.26,20.32,5.73,3.73,1.48,15.02,2.7,18.19,3.73,3.16,1.05,4.37-1.82,8.76,.52,4.38,2.34,7.65,5.47,4.38,7.12-3.26,1.66-11.47,2.87-7.27,3.91,4.18,1.04,10.54,2.35,16.6,2.17,6.06-.18,16.96-2.43,20.32-2.43s5.41,2.08,8.58,7.38c3.17,5.3,5.68,7.38,6.89,7.81,1.21,.43-1.21-2.52-.56-5.12,.66-2.61-.65-7.73-1.39-9.46-.74-1.74,0-2.61-1.49-5.13-1.48-2.51-3.91-2.08,.57-4.25,4.48-2.17,7.55-5.38,12.96-4.69,5.4,.69,6.9,7.56,11.56,8.07,4.67,.52,5.51,2.34,13.52,2.96,8.02,.61,4.67,.09,13.62,.7,8.94,.61,5.69-.97,7.55-5.56,1.87-4.61,3.92-5.48,6.06-5.3,2.15,.17,9.69,1.21,9.69,2.17s-3.17,5.89-1.58,8.33c1.58,2.43,8.03,6.43,8.03,6.43,0,0-1.4-5.56-1.4-6.17s-.47-4.94,.47-5.73c.94-.79,6.25,.43,9.6-6.08,3.35-6.51-2.25-6.17-2.25-6.17,0,0-2.05,.1-1.03-2.6,1.03-2.7,6.99-4.34,6.99-4.34,0,0,.38,1.21-.38-.97-.74-2.16-4.65-1.73-8.85-1.99-4.2-.25-7.07-.86-7.83-4.43-.75-3.56-1.02-11.03-1.02-16.15s4.11-3.3,4.85-6.16c.75-2.86-.19-16.84-1.21-19.71-1.03-2.86,1.48-9.03,2.06-13.11,.54-4.08,4.75-2.26,4.75-2.26-.75-1.39,1.2-5.3,6.8-6.94s16.23,.08,16.23,.08c0,0-.94,.09-3.55,3.48-2.61,3.39-.93,9.39-4.85,13.63-3.9,4.26-13.89,2.87-13.89,2.87,0,0,3.07,7.03,1.77,9.28-1.31,2.26-2.14,6.87-2.14,6.87,0,0,8.76,2.43,9.23,7.98,.47,5.56,4.84,6.51,5.87,11.63,1.02,5.12-4.29,9.38-3.17,10.16,1.12,.79,1.49,1.13,4.67,1.3,3.16,.17,7.45,.78,7.45,.78,0,0-1.77,2.61-.19,5.39,1.59,2.78,.38,4.52,.56,7.47,.19,2.95,1.96,5.47,2.7,4.95,.75-.52,4.21-8.08,4.95-11.46,.74-3.39,1.3-5.21,2.79-5.21s6.53,4.61,7.09,6.26c.57,1.65,.93,3.91-1.86,8.42-2.8,4.52-2.52,6.6-.09,8.34,2.41,1.73,2.52,1.22,6.89,3.3,4.38,2.08,3.55,1.9,6.25,1.12,2.71-.78-1.12-7.64-.84-7.81,.29-.18,6.44-.87,5.05-4.35-1.4-3.48-2.81-5.21,.08-6.94,2.9-1.74,4.94-3.12,4.94-3.12-1.21-2.17-1.58-2.34-3.63-8.17-2.05-5.82,1.76-4.25,9.8-3.65,8.01,.62,8.38,3.39,12.67,5.56,4.29,2.17,1.58,2.95,2.98,6.43,1.4,3.47-3.54,3.99-3.54,3.99,0,0-3.26,.61-2.52,3.3,.75,2.7,2.24,5.9,4.58,10.08,2.33,4.17-.65,7.03-4.3,10.42-3.63,3.39-7.93,4.35-12.21,4.43-4.3,.08-6.16,1.82-6.43,.61-.29-1.21-2.34-2.34-4.66-1.82-2.34,.52-7.66,2.61-5.79,3.3,1.86,.7,6.8,.52,4.75,4.35-2.06,3.82-3.83,3.82-7.93,3.39-4.1-.43-7.92-.43-10.54-.61-2.6-.16-15.48-.95-15.48-.95,0,0,8.69,5.3,15.58,7.47,6.89,2.17,14.18,.87,14.18,.87,0,0-2.8,5.21-6.17,10.76-3.35,5.56-6.53,3.13-9.31,3.48-2.81,.34-4.48,2.61-9.7,3.3-5.23,.7-16.14-1.48-14.46-.69,1.68,.79,2.43,2.16,5.41,2.61,2.99,.43,4.85,.95,7.46,3.12,2.61,2.17-1.68,2.7-5.12,3.3-3.46,.61-4.39,1.22-5.97,3.39-1.59,2.18-7.47,10.59-9.33,13.2-1.87,2.61-3.54,6.94-4.29,12.07-.75,5.13-5.12,11.29-3.17,12.59,1.95,1.3,9.31,1.48,12.4,3.39,3.07,1.91,6.53,11.29,8.85,14.85,2.34,3.56,4.2,6.26,6.8,3.48,2.61-2.78,7.75-2.08,12.59-.34,4.85,1.74,14.73,8.59,17.82,11.63,3.07,3.04,8.48,2.53,14.54,3.39,6.06,.87,6.75,3.15,6.75,3.15,0,0,6.31,.33,3.71,3.02-2.61,2.69-3.36,.08-.75,4.6,2.62,4.52,2.53,10.59,1.78,13.63-.75,3.04,8.35,1.51,12.18,3.76,3.82,2.25,4.03,11.44,6,10.31,1.96-1.13,5.21-3.13,5.59-5.56,.38-2.43-.09-5.64-.47-9.81-.38-4.17-1.4-11.81-3.45-14.85-2.05-3.04,3.7-4.25,2.76-5.56-.92-1.3-.71-3.9,3.21-4.95,3.92-1.03,4.2-.08,6.34-1.74,2.15-1.65,2.52-9.37,2.88-12.15,.39-2.78-.65-8.77-1.57-11.03-.93-2.25-4.76-9.47-6.15-11.03-1.42-1.57-3.17-2,.66-6.86,3.81-4.86,1.57-3.82,1.02-5.3-.56-1.48-1.39-5.12-2.14-8.42-.76-3.3,1.58-6.95,.18-11.64-1.4-4.69-2.89-3.64-2.61-4.69,.28-1.04,9.13-.78,15.67-.08,6.53,.69,9.13-.7,10.99-.7s5.23,1.83,8.86,4.17c3.63,2.34,5.03,1.74,6.9,4.6,1.86,2.86,2.89,4.43,6.7,4.25,3.83-.18,7.94,1.65,7.94,1.65,0,0-2.71,1.57-2.24,6.69,.46,5.12-.57,8.85-.48,10.94,.09,2.08,1.13,2.17,2.89,2.43,1.77,.26,6.54,4.51,11.47,6.25,4.94,1.74,6.25,1.21,7.83-2.78,1.6-3.99,1.97-3.65,3.93-3.9,1.95-.26,2.61,.43,3.44-.43,.84-.87-1.49-2.61-.94-5.38,.56-2.79,3.26-6.43,5.51-8.52,2.23-2.08,3.82,2.09,5.78,5.91,1.96,3.82,8.76,16.23,10.72,20.31,1.95,4.09,4.48,4.35,2.14,8.17-2.33,3.81-3.45,5.46,.19,7.2,3.63,1.74,6.9,4.78,6.63,7.64-.3,2.87-1.04,2.95,.18,3.74,1.21,.78,5.59-1.57,8.76-.17,3.17,1.39,6.99,2.7,9.23,4.94,2.23,2.26,2.06,3.04-1.12,4.16-3.17,1.13-6.35,2.26-7.93,3.21-1.59,.96-4.1,2.79-4.01,4.26,.1,1.47-.66,3.9,1.87,1.99,2.52-1.91,6.63-3.82,9.6-4.69,2.98-.86,.75-.09,3.45-.43,2.71-.34,5.31,1.3,9.05,2.34,3.71,1.05,2.7,3.39,1.76,5.56-.93,2.17-1.76,4.25-.28,6.69,1.5,2.43-.65,4.6-3.92,7.55-3.26,2.95-5.68,3.39-10.99,4.08-5.31,.7-7.85,3.9-11.57,7.37-3.72,3.48-5.59,2.61-11,2.87-5.41,.26-3.26-2.69-4.94-2.08-1.69,.62-3.82,2.44-7.27,2.79-3.46,.34-15.12,.52-19.59,1.82-4.47,1.3-3.07,4.34-4.19,6.85-1.12,2.52-2.89,1.48-6.25,2.61-3.36,1.13-7.37,6.08-11.28,12.86-3.93,6.77-9.23,10.94-9.23,10.94,1.12-.26,6.62-3.65,9.32-6.95,2.71-3.3,13.99-11.11,17.44-13.54,3.44-2.44,10.9-5.99,12.68-5.48,1.78,.53,6.17,3.91,6.17,5.65s-1.31,3.12-4.48,6.07c-3.17,2.95-7.37,0-7.09,1.21,.28,1.22,2.52,3.99,4.94,4.6,2.43,.61,2.32,3.57,2.32,5.04s-1.39,3.39,4.2,8.08c5.6,4.69,9.52,5.03,13.63,4.77,4.1-.25,1.95,1.39,3.63,1.22,1.67-.17,2.05-3.39,2.61-5.99,.57-2.61,1.5-5.03,2.98-6.17,1.5-1.13,2.61-3.21,3.08,.79,.46,3.98-1.68,9.46-3.84,10.67-2.13,1.21-1.66,2.78-1.66,3.99s-2.43,1.3-8.22,4.52c-5.77,3.21-7.64,3.99-8.67,3.56-1.02-.44-3.17,.52-5.96,3.04-2.8,2.52-5.78,5.91-7.83,5.81-2.07-.08-3.83-.95-1.03-3.82,2.79-2.87,3.74-6.85,6.53-8.25,2.8-1.39,4.1-1.21,6.44-1.21s1.21-1.39,3.07-2.77c1.86-1.39-1.4-.97-4.57-1.48-3.17-.52-.74-3.3-.74-3.3l-3.27,1.74s-4.94,2.61-6.25,2.79c-1.3,.16-1.02,1.03-1.39,1.56-.38,.53-5.03,.87-5.03,.87,0,0-2.43,4.94-6.07,5.64-3.63,.71-1.11,.44-3.73,1.56-2.61,1.13-2.13-1.3-2.7-.61-.56,.71-1.03,1.31-3.91,3.48-2.89,2.18-4.58,2.87-6.62,10.77-2.06,7.9,.37,10.76,.28,11.99-.09,1.21-3.64-.79-4.66,.16-1.04,.96-3.37,3.91-6.44,4.78s-9.13,2.43-10.54,3.91c-1.4,1.48-1.49,3.56-2.15,6.59-.65,3.05-4.29,10.17-4.29,10.17,0,0,.84-2.87-1.68-4.95-2.52-2.08-2.13-3.99-2.13-3.99,0,0-.57,2.86,.37,5.81,.94,2.95,2.79,5.91,1.96,9.12-.85,3.21-2.44,7.21-4.38,8.34-1.97,1.13,.46-2.17,.46-4.77s-1.3-2.78-2.15-4.08c-.84-1.31-.84-4.61,.65-9.04,1.5-4.43-1.39-1.73-3.07,1.22-1.67,2.95-2.88,8.42-.28,11.99,2.61,3.56-1.67,3.21,.1,8.33,1.76,5.12-2.14,7.64-1.41,8.43,.75,.78,2.8-.34,3.74,2.16,.93,2.53-1.86,1.39-2.8,2.09-.94,.7-.48,1.65,.09,3.04,.56,1.38,1.68,.51,1.21,.95-.47,.43-1.78,2.16-4.2,2.95-2.42,.78-2.62-.44-4.11,1.3-1.48,1.73-2.6,3.3-4.19,5.29-1.58,2-2.7,1.31-4.38,2.7-1.68,1.39-2.33,2.52-4.39,4.26-2.04,1.74-6.71,4.43-9.22,7.81-2.52,3.39-1.87,4.26-3.08,9.73-1.21,5.46,3.08,15.02,5.79,24.06,2.71,9.03,3.82,6.51,3.44,9.37-.37,2.86-1.58,6.34-3.55,8.34-1.94,2-3.06-1.39-5.76-3.39-2.71-1.99-.57-3.38-3.17-7.54-2.62-4.17-2.43-5.65-2.71-8.69-.29-3.03-.75-7.38-2.14-10.67-1.4-3.31-4.39-7.48-8.86-5.82-4.48,1.66-3.35,.87-5.78,.16-2.44-.69-8.85-3.29-12.13-1.56-3.27,1.74-13.6-.52-15.76,0-2.15,.52-3.74,.7-3.74,2.18s-.92,1.72,2.9,2.77c3.82,1.04,3.26,2.17,2.99,3.82-.29,1.65-3.09-.87-4.58-1.48-1.5-.61-2.89,1.21-5.49,1.21s-3.08-2.52-5.42-2.86c-2.33-.35-3.26,0-5.5-.87-2.23-.88-5.21-2.34-7.83-2.17-2.61,.18-12.68,6.86-17.44,10.42-4.75,3.57-8.39,7.03-9.5,9.9-1.12,2.87-1.22,3.13,2.61,7.39,3.82,4.26,2.05,3.57,1.3,5.99-.75,2.43-2.98,5.38-5.68,11.63-2.71,6.25-1.12,9.29,2.13,15.28,3.27,5.99,6.16,10.33,8.77,12.85,2.62,2.52,4.47,5.21,6.71,6.16,2.24,.95,2.7,1.3,3.73,2.34,1.03,1.05,.75,1.48,4.3,.53,3.53-.95,6.14-2.34,8.67-2.34s4.85,.08,6.25,1.39c1.39,1.3,1.58,.53,1.58-.18s1.12-3.3,1.49-3.99c.37-.7,3.73-5.47,4.29-8.08,.56-2.61,.56-7.82,3.83-8.17,3.25-.34,10.25-1.99,16.59-1.56,6.34,.43,3.54,3.56,1.87,6.85-1.69,3.3-2.34,3.65-2.34,6.17s.75,2.53-1.29,4c-2.05,1.48-.75-.87-1.59,.61-.84,1.48-3.82,3.56-3.45,3.21,.37-.35,1.3,2.51,1.3,3.9s-.28,2.08-.28,5.48-6.62,6.85-6.62,6.85c0,0,2.43,1.39,5.97,1.39s7.83,0,11.56,1.74c3.73,1.73,10.81-1.39,16.04,1.21,5.22,2.61,3.36,4.16,3.72,6.6,.38,2.43,.93,10.76,.57,12.67-.39,1.91-2.81,7.29-4.12,11.12-1.3,3.81,3.73,6.6,8.4,9.72,4.66,3.12,8.76,4.52,11.19,5.21,2.4,.7,6.89-3.65,15.1-3.12,8.2,.52,10.99,7.47,10.99,7.47,0,0,.93-4.34,4.67-10.25,3.74-5.9,3.91-7.64,8.94-9.55,5.05-1.91,6.72-2.25,14.93-4.86,8.21-2.61,6.71-.69,10.99-.34,4.3,.34,14.18,1.21,24.07,4.16,9.88,2.95,25,3.82,30.77,6.25,5.78,2.43,8.39,9.21,14.36,14.77,5.97,5.55,13.42,10.59,16.59,13.2,3.17,2.61,20.89,5.04,24.81,6.6,3.91,1.56,9.32,7.98,9.69,11.81,.37,3.82,4.29,5.73,9.69,7.99,5.41,2.26,7.09,4.87,10.64,11.81,3.55,6.94,2.42,8.85,7.26,10.59,4.86,1.75,38.43,10.76,46.81,14.07,8.39,3.3,19.03,12.16,21.82,13.2,2.8,1.04,7.84-.88,10.08,.34,2.24,1.22-1.31,7.81,1.49,12.5,2.8,4.69,2.98,5.04,1.3,8.51-1.67,3.48-8.39,11.81-10.99,15.98-2.62,4.17-8.21,6.77-11.38,8.52-3.17,1.72-5.98,0-3.17,3.47,2.8,3.47,.19,6.42-2.24,9.55-2.43,3.12,.19,2.77-.57,12.85-.75,10.07,0,21.01-1.12,25.35-1.11,4.35-7.63-3.82-15.1,5.56-7.45,9.38-9.5,16.49-13.98,17.54-4.48,1.04-14.92,6.26-18.46,9.55-3.55,3.3-4.29,4.52-6.53,9.38-2.23,4.85-4.47,14.76-6.9,20.84-2.43,6.08-6.34,9.55-15.29,17.71-8.96,8.17-12.87,16.5-18.66,22.93-5.77,6.42-4.29,5.03-5.49,6.25-3.09,3.1-15.81-5-12.53-.52,2.43,3.3-1.37,0,.68,3.12,2.05,3.13,3.55,4.34-.93,9.9-4.47,5.56-9.64,4.46-13.18,5.33-3.54,.87-8.83-3.65-9.2-1.39-.37,2.25-2.42,7.87-5.22,9.26-2.79,1.39-10.25,3.48-10.06,4.35,3.52,16.45,10.76,18.17,3.1,17.41-21.03-2.05-6.03-7.04-20.64,23.56-2.23,4.7-4.47,2.26-4.1,7.82,.38,5.56,0,9.72,2.99,13.2,2.98,3.48,.93,3.3-4.11,7.98-5.03,4.69-5.41,4-10.07,11.12-4.67,7.12-9.14,6.77-7.47,12.16,1.68,5.39,2.06,13.37,4.85,21.36,2.79,7.99,8.58,6.59,17.72,12.16,9.13,5.55,10.26,2.6,14.73,3.99,4.48,1.39-3.17,1.74-11.2,3.12-8.01,1.39-13.23,2.95-18.83,1.75-5.59-1.22-18.82-8.86-23.31-12.17-4.48-3.3-11.74-9.2-14.36-14.93-2.61-5.73-4.48-11.46-7.83-19.27-3.35-7.82-.94-12.68,.56-29.88,1.49-17.19,2.62-30.56,5.03-39.76,2.42-9.22,9.89-50.19,11.93-60.79,2.06-10.59,11.57-53.66,12.31-60.43,.74-6.77,1.31-11.99,2.8-18.76,1.49-6.77,.57-20.5,.57-21.19s-.57-1.21-2.62-7.64c-2.04-6.43-5.4-9.03-10.06-11.81-4.66-2.79-9.52-6.26-13.24-8.86-3.74-2.6-8.22-6.26-11.94-10.94-3.74-4.69-7.28-14.24-9.14-18.24-1.86-3.98-8.76-17.53-15.1-26.91-6.34-9.38-6.71-9.56-9.89-19.46-3.17-9.9,2.8-10.07,3.92-15.63,1.11-5.55,4.84-11.12,8.95-18.92,4.1-7.82,9.51-10.08,12.68-17.02,3.17-6.95,.75-6.95-.38-13.72-1.12-6.77,.38-5.72-1.69-9.38-2.05-3.64-3.16-8.15-5.03-9.37-1.86-1.22-4.66-2.09-6.34-.17-1.68,1.9-4.66,7.46-6.53,7.81-1.86,.34-2.62-1.75-3.73-2.96-1.12-1.21-6.53-1.21-7.65-2.43-1.12-1.21-3.91-1.39-5.77-2.25-1.88-.87-9.15-4.7-11.2-6.43-2.05-1.74-4.66-5.91-4.66-10.42s-3.91-6.26-12.67-12.5c-8.77-6.26-12.5-7.13-23.14-9.73-10.63-2.6-14.91-10.07-18.46-12.15-3.54-2.08-3.17-4.34-11-3.48-7.83,.87-17.34-3.48-23.32-5.9-5.95-2.44-16.59-4.16-21.08-7.12-4.46-2.96-12.29-4-15.65-11.12-3.36-7.12-2.8-4.35-1.49-10.59,1.3-6.26-7.65-11.46-13.06-17.36-5.4-5.91-9.51-6.77-12.31-14.07-2.8-7.3-6.9-6.95-12.31-12.16-5.41-5.21-5.6-11.81-7.84-17.72-2.23-5.9-17.14-14.41-17.14-14.41,0,0,3.9,9.9,5.58,13.9,1.68,3.99,5.59,13.54,10.08,20.67,4.47,7.12,8.39,8.85,12.49,15.97,4.1,7.12,.19,11.46-1.31,8.69-1.49-2.79-7.46-4-7.46-7.3s-1.48-5.39-2.8-7.99c-1.3-2.61-7.08-5.57-12.68-10.08-5.59-4.51-9.5-6.59-5.97-6.59s8.58,3.3,7.65,1.21c-.93-2.08-7.27-8.51-10.26-13.03-2.98-4.52-3.93-9.55-6.9-17.19-2.98-7.64-13.98-14.94-19.4-15.45-5.4-.52-6.9-3.12-8.76-8.68-1.86-5.56-2.24-11.46-4.67-15.81-2.43-4.34-12.87-18.92-13.05-24.48-.2-5.56-3.17-21.71,.56-30.74,3.73-9.03,2.8-29.17,2.24-33.17-.56-3.98-7.28-11.63-7.28-14.59s3.93-1.21,6.91-.35c2.98,.88,9.31,3.48,9.31,3.48,0,0-4.84-9.03-7.82-12.15-2.99-3.13-11.76-7.12-15.67-7.99-3.93-.86-8.95-2.25-11-5.55-2.05-3.3-4.29-7.64-5.79-10.43-1.48-2.77-7.84-6.07-9.31-9.03-1.5-2.96-1.12-8.68-3.17-11.63-2.05-2.95-5.04-4.69-8.4-3.48-3.36,1.21-4.46-1.74-7.08-6.08-2.62-4.33-8.4-6.42-10.08-6.94-1.68-.52-7.45-8.17-7.83-10.08-.37-1.91-9.52-11.99-12.49-14.07-2.99-2.09-31.89-11.46-32.63-11.46s-9.15,1.21-11.38,.52c-2.24-.7-9.89-7.3-13.79-8.68-3.93-1.39-6.73,1.56-8.58,5.9-1.88,4.34-11.01,11.81-16.04,15.1-5.03,3.31-9.14,3.66-8.77,1.92,.38-1.74,.19-4.52,1.88-8.69,1.67-4.16,2.61-5.38,7.82-7.99,5.24-2.61,5.03-2.78,2.99-2.61-2.05,.17-3.55-.34,.56-2.77,4.1-2.44,5.78-2.79,5.59-4.87-.19-2.08-8.95,2.79-14.55,7.3-5.6,4.51-8.94,7.64-13.79,15.63-4.85,7.99,.56,5.03-3.55,10.25-4.1,5.21-18.09,15.81-22.19,19.8-4.11,3.99-21.07,12.85-27.98,14.94-6.9,2.08-9.69,2.95-13.05,5.73-3.36,2.77-11.74,3.64-8.95,1.74,2.8-1.92,8.02-6.26,11.57-8.35,3.53-2.08,13.05-5.9,15.85-6.94,2.8-1.05,10.62-5.91,14.55-10.25,3.91-4.35,6.53-9.38,9.13-13.54,2.61-4.17,3.17-6.08-2.23-4.35-5.42,1.74-11.01,1.04-13.81,0-2.8-1.04-10.08,3.3-12.68,1.39-2.61-1.92,.19-5.91-1.5-7.82-1.66-1.91-7.45-.69-11.18-1.39-3.73-.69-8.95-3.64-8.95-8.85s-3.73-9.72-1.69-13.72c2.06-3.99,5.05-5.04,8.39-7.29,3.35-2.26,12.67-5.21,14.54-5.21s4.49-1.91,6.16-3.65c1.68-1.73-3.92-7.99-3.92-7.99,0,0,.93-.69,3.17-2.08,2.24-1.39,.57-4.34-3.36-3.82-3.92,.52-12.31,4.53-17.53,5.9-5.21,1.39-12.3,.52-12.12-1.73,.19-2.26,1.3-3.65-.56-5.39-1.85-1.74-3.36-3.65-1.49-4.51,1.87-.87,13.43-7.3,13.43-7.3,0,0,4.1,4.51,8.58,5.03,4.48,.53,13.98-7.81,13.98-7.81-5.96-3.65-4.66-4.69-4.66-4.69,0,0-9.7-.17-11.94-1.57-2.23-1.39-2.98-4.16-3.54-6.59-.56-2.43-10.07-4.35-7.45-8.35,2.61-3.98,7.45-5.38,10.63-9.37,3.17-3.99,5.97-11.47,15.11-15.63,9.14-4.17,20.14-7.98,24.99-11.46,4.85-3.48,7.08-.16,8.95,.34,1.86,.52,13.43-.51,17.9-.51s5.22,5.03,6.71,6.24c1.48,1.22,40.85,2.44,40.85,2.44,0,0,33.37,.52,40.09,2.43,6.71,1.91,18.83,6.94,18.83,6.94,7.37-.95,6.72-9.9,11.28-9.9Zm448.42-201.45s-3.36,13.9-16.77,17.72c-13.43,3.82-38.06,14.59-39.17,15.28-1.12,.69,1.49,8.33,4.85,12.15,3.36,3.82,6.53,6.43,9.51,10.25,2.98,3.82,8.21,3.48,12.31,7.47,4.1,3.99,7.08,2.6,18.27,2.78,11.19,.17,8.21,1.04,20.7,1.74,12.49,.69,25.55,1.74,29.84,5.56,4.28,3.82,10.44,18.76,14.35,27.78,3.92,9.03,10.82,23.96,10.82,25.36s-4.3,12.33-4.3,14.06,2.24,4.69,4.3,7.12c2.04,2.43,.93,4.34,.55,6.59-.37,2.26,2.24,7.99,2.62,8.69,.38,.69,5.96-5.56,9.51-6.6,3.54-1.04,12.31,6.26,12.31,11.29,0,11.41,3.11,7.53-15.48,21.01-2.45,1.78-4.84,15.45-2.98,22.05,1.86,6.61,6.34,14.42,9.88,23.8,3.54,9.37,13.99,22.57,17.34,28.65,3.36,6.08,4.3,14.41,11.75,16.33,7.46,1.9,14.55,4.51,19.96,5.72,5.41,1.21,8.95,2.95,11.56-2.08,2.62-5.03,7.84-24.14,12.13-38.03,4.28-13.9-.39-18.06,9.69-21.19,10.07-3.12,26.1-9.38,30.39-11.29,4.3-1.92,3.55-15.63,13.06-20.15,9.52-4.51,10.81-4.16,20.14-7.12,9.33-2.95,22.38-8.85,31.71-15.45,9.32-6.6,11.93-3.12,15.29-9.21,3.36-6.07-3.36-14.94-4.1-23.96-.75-9.03,2.98-9.55,4.84-17.72,1.88-8.16,2.8-13.54,10.08-19.1,7.28-5.56,11.18-8.67,9.89-13.89-1.31-5.21-5.03-13.03-5.03-18.76s1.3-2.43-1.68-10.41c-2.98-7.99-2.98-9.03-.2-16.5,2.81-7.47,10.26-5.55,9.71-8.86-.57-3.3-11.94-8.33-12.12-17.54-.19-9.21,2.05-11.98,3.91-14.24,1.86-2.26,20.89-17.36,22.19-18.76,1.3-1.39-.37-5.21,8.95-9.72,9.32-4.51,12.49-7.46,16.04-8.85,3.55-1.39,9.14-1.21-1.68-4.35-10.82-3.12-13.23-4.51-20.32-3.64-7.08,.87-9.5,4.86-22.19,6.08-12.68,1.21-27.05,7.12-27.05,7.12,0,0,4.3-3.82,.57-7.48-3.73-3.64,9.7-15.63,11.95-17.02,2.22-1.38-17.54-6.25-27.8-8.15-10.25-1.92-30.39-7.99-41.95-7.13-11.57,.87-28.53,.71-34.32,2.61-5.78,1.91-5.03,9.38-11.56,9.73-6.53,.34-18.64-3.82-27.97-2.43-9.32,1.39-24.25,7.82-25.92,8.17-1.68,.35,5.79,4.86,10.63,5.9,4.84,1.05,11.18,11.12,11.18,11.12,0,0-13.04-4.35-26.29-7.99-13.25-3.65-28.73,0-34.13,1.57-5.41,1.56-12.49,4.51-23.31,5.03-10.82,.53-23.12,9.38-29.28,13.54-6.16,4.16-25.36,15.28-30.21,17.89-4.85,2.61-2.98,3.82,2.24,5.21,5.21,1.39,10.81,2.25,10.81,2.25Zm-276.37,143.56c1.48,6.36,1.48,15.51-2,11.58-3.48-3.94-6.34-11.93-11.93-8.69-5.59,3.25-11.68,2.33-10.69,1.63,.99-.7-.12-4.17-2.99-5.21-2.84-1.04-4.59,.58-7.57,2.32-2.99,1.74-12.44,4.05-8.58,1.03,3.85-3.01,2.61-4.62,1.24-8.1-1.36-3.48-11.19,2.43-16.41,6.14-5.21,3.7-8.32,9.37-11.44,13.19-3.11,3.82-.87,6.26,3.85,7.64,4.73,1.39,12.31,2.32,5.97,4.64-6.33,2.31-11.19,3.93-7.95,5.9,3.23,1.97,8.83,2.31,14.42,1.61,5.6-.7,10.32-2.19,19.27,.24,8.95,2.43,14.29,2.31,14.29,2.31,0,0-3.35,2.08-9.32,3.13-5.97,1.03-16.91,0-22.51,1.03-5.58,1.05-14.41,2.54-12.17,4.63,2.23,2.09,3.98,5.32,11.68,7.76,7.71,2.44,9.08,.12,13.68,1.27,4.61,1.16,2.12,6.37,3.36,7.18,1.25,.81,9.95-.69,18.65-2.31,8.71-1.62,5.47-3.02,12.31-4.75,6.83-1.73,7.08-6.94,11.06-8.1,3.97-1.16,1.12,2.66,5.84,3.82,4.73,1.16,2.12,1.51,7.22,2.32,5.1,.81,4.1,2.78,9.08,2.43,4.98-.34,10.81-3.7,10.07-4.29-.74-.57-1.49-2.08-.98-4.39,.49-2.31-4.99,.46-6.97,1.62-1.99,1.16-1.86-3.13,2.35-5.21,4.24-2.08,7.98,0,10.45,0s.25-7.18-4.23-8.33c-4.48-1.16-6.46-3.94-13.18-7.64-6.71-3.71-3.23-5.33-5.21-10.18-1.99-4.87-6.22-19.23-9.95-21.78-3.72-2.55-7.71-1.85-11.43-4.39,0,0-.75,3.58,.75,9.95Zm-103.19-9.84c1.62,4.62,1.86,1.73-1.37,6.82-3.23,5.1-1.37,6.95-3.61,10.77-2.23,3.82-8.2,8.92-6.34,11.46,1.86,2.54,7.83,4.05,10.32,6.02,2.48,1.97,4.97,6.02,9.44,4.52,4.48-1.51,5.97-2.55,9.08-4.17,3.12-1.62,5.72-3.47,5.59-7.53-.12-4.05-.25-6.01,1.01-5.67,1.24,.34,3.22,2.2,4.21-.47,1-2.66,2.74-6.13,4.85-8.22,2.11-2.08,8.2-4.17,11.06-6.6,2.87-2.44,7.71-5.09,9.08-7.17,1.38-2.1-2.49-3.71-4.84-4.64-2.36-.93-5.09-4.62-10.57-4.62s-8.45,4.16-8.21,2.31c.25-1.85-3.73-2.78-5.96-3.59-2.25-.8-4.35-2.08-11.45-1.27-7.08,.81-10.04,1.28-15.67,2.89-4.84,1.39,1.75,4.51,3.36,9.15Zm161.87,55.45c-.74,1.03-3.98,2.08-5.96,4.39-1.98,2.31,4.22,1.05,6.21,1.74,1.99,.7,3.49,2.66,5.1,3.25,1.62,.57,10.32,.92,13.93-.82,3.6-1.73,3.97-2.31,3.6-3.12-.38-.82-7.45-7.76-12.68-10.54-5.22-2.78-5.35-2.89-6.46-2.2-1.11,.69-2.98,6.25-3.73,7.3Zm-23.51-54.18c-3.37,1.68-5.82,3.7-.11,6.6,5.71,2.89,7.58,5.33,11.44,7.76,3.85,2.43,5.47,9.38,13.55,6.26,8.08-3.12,11.31-6.83,12.44-10.08,1.1-3.25-1.13-3.94-3.11-6.95-2-3-2.48-4.28-6.59-3.82-4.11,.47-5.48,.47-5.48,.47,0,0,2.74-3.48,7.21-5.67,4.48-2.21,.74-3.71,2.85-5.79,2.12-2.08-5.34-3.12-8.57-2.32-3.24,.82-3.36-.23-8.71-.46-5.35-.23-13.8,4.63-13.43,6.36,.38,1.74,4.35,1.05,8.08,3.13,3.73,2.09,4.85,1.85,1.12,7.76-3.72,5.9-5.72-1.39-6.96-2.32-1.24-.92-.24-2.66-3.74-.92Zm-23.86-10.65c-5.58,.53-7.47,4.39-5.35,4.98,2.11,.58,3.48-.58,6.83,3.01,3.36,3.59,6.35,5.56,7.71-.34,1.37-5.9-.62-8.46-9.19-7.64Zm-89.77-44.81c-6.23,4.98-7.45,8.92-12.3,12.05-4.85,3.12-3.74,5.79-2.11,7.51,1.62,1.75,6.46-.11,8.7-1.26,2.24-1.16,4.1-4.05,5.47-2.31,1.37,1.74,7.09-5.9,9.33-8.46,2.24-2.54,5.71-5.21,6.35-5.08,.62,.11-2.13,3.01-1.12,5.44,.99,2.43,5.46,2.55,9.44-1.62,3.98-4.17,.38-7.99,3.48-11.23,3.11-3.25,5.72-2.79-.37-5.68-6.09-2.89-9.95,.35-11.2,1.86-1.24,1.5-3.48-.93-15.67,8.79Zm37.92,7.88c-3.53,.16-5.09,.7-10.94,3.24-5.84,2.55-8.33,9.15-9.69,12.74-1.38,3.59,.61,3.59,5.97,5.67,5.34,2.08,12.81-.57,14.54-5.56,1.75-4.99,3.87,1.16,2.87,3.71-.99,2.54,3.73,.23,5.97-.94,2.24-1.15,8.94-1.61,9.44-1.61s-5.47,4.52-11.32,6.49c-5.84,1.97-10.56,3.01-12.18,3.24-1.62,.24,1.51,2.66,8.33,4.06,6.85,1.39,10.94-4.17,20.77-7.88,9.81-3.7,9.32-4.4,12.55-3.47,3.24,.92,6.71-1.62,10.69-2.56,3.98-.92,5.59,.59,7.35-5.32,1.73-5.9,4.84-11.58-.75-11.93-5.6-.34-5.97-.34-6.71,6.03-.75,6.37-1.25,2.43-1.25,2.43,0,0-3.73-5.56-5.97-8.46-2.23-2.89-3.85-7.4-6.34-9.84-2.48-2.43-3.61,1.04-7.46,5.33-3.85,4.28-.75,5.9,3.11,7.76,3.85,1.85,6.59,6.6,4.73,7.87-1.87,1.28-3.98-.23-11.07,.58-7.09,.81-6.84-2.2-8.83-3.12-1.99-.93,3.35-2.89-4.24-6.02-7.57-3.13-7.07-2.56-9.57-2.43Zm-23,6.03c.79-1.34-9.44,6.02-10.99,8.39-1.56,2.37,1.56,1.97,4.66,1.85,3.1-.11,3.73-5.79,6.33-10.24Zm19.65-15.35c-2.56,1.15-2.56,2.02,1.61,2.48,4.17,.47,6.6-1.39,5.72-3.12-.86-1.74-5.28-.29-7.33,.64Zm21.19-21.99c-2.73,.45-10.81,3.3-11.26,4.67-.43,1.39,.07,4.4,1.31,6.78,1.25,2.37,1.69,2.72,8.63,.87,6.97-1.85,11.76-5.44,9.44-6.08-2.29-.63-3.71-1.68-5.76-1.96-2.06-.29,1.8-1.39,6.39-2.84,4.6-1.44,6.16-3.94-8.76-1.44Zm-23.55,3.64c-1.97,.9-2.68,.92,1.43,2.49,4.1,1.56,8.52,1.44,7.95,.17-.55-1.29-3.85-5.22-9.38-2.66Zm16.03-11.4c-3.89,1.53-4.77,4.34-5.65,5.44-.87,1.11,4.41-.8,6.83-1.39,2.43-.58,2.98,.86,5.35-1.22,2.36-2.08,7.03,.07,11.26-.87,4.22-.92,4.9-3.7,3.98-6.12-.93-2.44-10.63-.24-21.77,4.16Zm42.15,10.48c-1.15,.55-.75,2.37,.25,4.52,.99,2.13,1.25,1.62,3.35,2.43,2.11,.81,4.22,2.49,4.72,3.01,.51,.53,.8,.7,1.68-1.39,.88-2.09-.43-1.74-2.8-4.52-2.36-2.78-4.22-5.5-7.21-4.05Zm14.36,18.18c-3.22-.88-5.03,.98-6.22,1.56-1.18,.58,.62,1.91,1.43,4.39,.8,2.5,.12,3.31,4.85,3.66,4.72,.34,6.16-.52,6.53-3.53,.38-3.01-3.6-5.26-6.58-6.07Zm18.34,5.44c-2.93-2.15-4.35-3.89-7.34-2.66-2.98,1.21-.5,2.71-.5,3.53s3.61-.12,3.67,1.85c.06,1.97,1.17,2.77-3.17,3.01-4.35,.23-5.54,.06-7.22,1.33-1.66,1.27,3.24-.17,4.73,1.8,1.49,1.97,4.04,2.2,8.2,1.57,4.17-.64,9.82-1.57,9.82-1.57,0,0-3.04,2.89-4.29,4.92-1.24,2.03-1.74,4.92,.43,6.36,2.18,1.46,2.43-1.49,8.46-1.62,6.03-.11,7.83-3.24,7.83-3.24,0,0-1.37-1.34-1.18-4.35,.19-3.01-.07-3.71-.07-3.71,0,0,2.44,1.74,2.98,2.44,0,0-.43-1.8-1.3-5.04-.87-3.23-.18-3.48-1.12-7.87-.94-4.4-.75-5.33-5.28-5.21-4.54,.12-7.65,1.69-11.39,1.69s-5.35,.69-2.6,2.08c2.74,1.39,3.12,3.07,4.41,4.62,1.31,1.57,1.06,5.33,1.12,5.16,.06-.17-6.21-5.09-6.21-5.09Zm-22.69,16.49c-.07,.02-.13,.06-.2,.08-1.89,.93-2.54,3.03-2.66,4.49-.12,1.51,2.49,.63,6.66-.81,4.16-1.45,2.12-5.67-3.8-3.76Zm58.68-7.87c-3.46,1.88-6.21,4.4-8.21,6.66-1.98,2.26-.25,2.54,4.91,5.15,5.17,2.61,10.69,3.12,13.11,.4,2.43-2.71-1.11-16.96-9.81-12.21Zm23.99-20.2c-6.62,.66-4.57,1.64-12.22-.87-7.64-2.53-17.25-2.79-19.86-2.79s-1.39,1.22,1.31,5.66c2.7,4.42,3.44,5.98,9.04,4.59,5.6-1.39,10.16-2.34,14.27,3.56,4.09,5.91,6.25,7.74,2.89,9.9-3.36,2.17-1.78,5.64,.19,10.17,1.96,4.51,6.43,4.33,12.68,4.33s45.78-.6,51.94-1.73c6.15-1.13,11.65-6.34,14.92-8.68,3.26-2.34,5.03-5.99,.56-8.69-4.48-2.69-10.82-5.21-15.86-5.21s-9.32,2.61-16.97,3.39c-7.64,.79-5.96,4.44-12.86,4.61-6.91,.16-3.55,3.21-12.04-.26-8.48-3.48-14.73-7.82-10.71-8.43,4-.61,7.26-1.12,5.03-3.03-2.25-1.92-6.16-7.12-12.31-6.51Zm-79.07-32.3c4.1,1.39,5.13,2.43,.56,3.64-4.57,1.21-8.12,4.43-3.54,3.82,4.57-.61,8.48,.43,14.35,1.39,5.89,.95,5.4,.34,8.02,3.65,2.62,3.3,5.41,3.3,9.43,2.34,4-.96,4.56-1.22,1.96-4.09-2.62-2.86-5.32-8.15-8.86-10.24-3.55-2.08-6.53-5.04-10.08-4.68-3.54,.35-4.38,.43-7.46-3.74-3.07-4.17-5.49-2.18-9.98-1.05-4.47,1.13-5.9,4.33-7.64,5.74-3.54,2.87,9.14,1.82,13.24,3.21Zm53.72-42.55c-4.85,6.07-8.77,11.2-3.28,11.81,5.51,.61,7.93-.43,8.3,1.31,.38,1.72-.93,2.94-9.14,2.94s-5.68,1.83-1.12,7.21c4.58,5.39,5.04,3.56,12.03,3.39,6.99-.17,9.32-2.7,15.11-1.21,5.78,1.48,7.55,2.95,2.33,4.51-5.23,1.56-17.54,4.51-14.73,7.12,2.8,2.61,11.47,8.85,15.39,9.47,3.91,.61,4.75-2.61,13.24-1.66,8.49,.96,6.44,1.83,7.36-.52,.94-2.34,5.6-8.33,6.53-10.51,.93-2.16,3.27-3.56,7.93-4.6,4.67-1.04,6.16-2.52,1.77-4.08-4.37-1.57-9.32-2.26-8.85-3.47,.46-1.22,3.17-4.78,1.3-6.61-1.86-1.82-4.84-1.74-7.27-2.69-2.41-.95-5.12-5.38-8.21-7.29-3.07-1.91-5.77-2.09-9.51-4.95-3.72-2.86-9.69-9.85-17.15-9.46-5.03,.25-7.18,3.21-12.02,9.29Zm-9.53,50.8c-1.86,.95-6.52,1.12-3.07,3.98,3.44,2.87,2.52,2.96,6.89,1.31,4.39-1.66,10.73-5.74,11.3-6.95,.55-1.21-4.39-3.56-7.75-4.6-3.35-1.04-5.68-3.73-12.68-5.65-10.17-2.77,7.18,10.94,5.31,11.9Zm228.14-90.33c-7.71-2.09-35.3-7.42-44.26-5.34-8.95,2.09-8.46-4.62-20.89-3-12.43,1.61-31.57,.69-37.54,1.61-5.96,.93,2.98,3.48,6.21,5.56,3.23,2.08-15.41-2.31-29.6,1.62-14.17,3.93-23.37,6.02-8.19,11.81,15.16,5.79,17.15,7.41,17.15,7.41,0,0-19.4-3.48-27.61-6.71-8.21-3.24-3.72-3.01-19.15,1.39-15.41,4.39-30.33,6.72-29.58,11.35,.74,4.63,12.44,10.89,20.14,12.5,7.71,1.62,23.63-2.31,24.87-2.78,1.24-.46-6.22,6.26-6.22,6.26,0,0,7.95-1.62,16.9-3.94,8.95-2.31,15.91-4.85,24.37-7.87,8.45-3.01,9.94-3.93,9.94-3.93,0,0-14.67,11.35-24.87,15.28-10.19,3.93-23.38,6.49-29.59,6.72-6.21,.23-5.23,4.16,.99,7.41,6.21,3.24,10.94,10.18,14.17,12.49,3.22,2.33,3.73,6.03,3.73,6.03,0,0-9.7-7.64-20.39,0-10.7,7.63-9.21,11.58-6.47,12.5,2.73,.92,12.18,1.85,13.92,5.09,1.75,3.24,14.18-3.01,14.18-3.01,0,0-6.21,7.87-12.18,7.87s-5.72-5.09-14.42-4.17c-8.71,.93-8.21,3.02-4.47,6.02,3.72,3.02,6.71,3.94,.25,6.95-6.47,3.01-9.45,3.94-9.7,7.64-.25,3.71,8.45,3.71,13.92,3.71s10.69-.48,20.64-.7c9.94-.24,8.7-3.48,12.43-3.48s7.46,1.16,5.97,4.86c-1.48,3.71,1.48,1.39,12.44-2.54,10.93-3.94,5.95-9.97,5.22-12.04-.75-2.09-4.73-2.78-7.21-3.94-2.49-1.16,7.46-11.35,5.96-14.81-1.48-3.48,12.19-.7,18.4-8.81,6.22-8.1,3.98-14.13-.49-15.51-4.47-1.39,8.21-.46,12.18-2.79,3.98-2.3,12.69-5.08,16.17-9.49,3.48-4.4,4.72-6.03-3.72-5.09-8.46,.93,12.17-3.71,22.12-10.2,9.94-6.48,21.39-14.12,23.87-15.97,2.49-1.85,4.74-.93-6.96-.23-11.68,.69-25.61-.93-17.9-1.85,7.71-.93,30.59-3.71,36.56-8.1,5.96-4.41,8.69-5.79,8.69-5.79Zm-139.24,160.69c-12.45-1.16-30.58-4.16-34.32,6.48-3.74,10.66-9.45,34.29-9.95,38.68-.49,4.4,14.92,10.88,25.61,11.34,10.69,.47,28.1,1.16,24.62-1.39-3.49-2.54-.5-3.94,9.45-3.48,9.94,.47,10.94-2.08,10.94-4.16s1.74,2.54,8.7,6.25c6.95,3.71,12.94,14.13,19.15,20.15,6.21,6.02,20.13,14.12,17.41,18.76-2.75,4.62,2.98,20.84-18.41,24.55-21.37,3.7-22.62,1.15-22.37,6.02,.25,4.85,1.23,6.95,9.69,6.95s20.14-6.95,24.12-1.85c3.98,5.09,9.45,6.94,12.94,8.11,3.48,1.16-4.23,3.23-6.22,3.94-1.98,.69,4.23,1.39,16.41,7.17,12.18,5.79,26.85,6.49,19.64,2.32-7.21-4.17-10.68-11.81-13.92-14.36-3.23-2.54-.25-.46,5.48,.93,5.71,1.39,10.94,6.02,13.42,8.1,2.48,2.08,3.73-.69,5.47-8.81,1.74-8.1-.74-8.1-10.45-14.58-9.69-6.48-12.68-11.58-13.68-16.22-.99-4.63,4.98-5.56,7.47-8.81,2.48-3.23,9.45,5.8,14.17,11.12,4.72,5.33,8.69,14.59,12.43,7.88,3.72-6.71,7.2-21.77,7.2-25.24s-3.72,.23-19.63-7.64c-15.92-7.87-24.13-10.88-25.61-10.88s4.22-3.01,11.19-6.48c6.94-3.48,9.94-3-4.99-17.14-14.92-14.13-19.14-17.14-28.84-18.06-9.7-.93-12.43-11.12-19.39-14.59-6.96-3.48-23.13,4.16-27.86,5.33-4.71,1.15-3.23,3-9.2-5.56-5.96-8.57-10.68-14.82-10.68-14.82Zm11.18,0c-6.18,.74,3.73,12.04,11.68,12.51,7.97,.46,14.67-3.48,16.41-3.94,1.75-.47-18.4-9.73-28.1-8.57Zm-27.91,114.85c-1.04,2.53-3.55,9.56-3.92,14.25-.38,4.69-1.12,5.38-2.05,8.33-.93,2.95,2.98-.52,5.6,3.82,2.6,4.35,1.48,5.56,6.15,.52,4.66-5.03,9.89-6.77,16.41-4.69,6.53,2.08,11.57,2.95,9.33-1.03-2.24-4-5.22-3.66-9.7-9.03-4.48-5.39-7.83-6.77-13.42-8.86-5.6-2.08-6.17-8.68-8.39-3.3Zm46.92,405.75c-1.93-4.02-4.82-10.53-16.91-12.77-12.09-2.25-16.18,2.25-20.64,3.76-4.48,1.51,4.17,2.25,9.93,0,5.75-2.25,10.13-.48,10.92,.55,.76,1.04-1.94,1.66-2.92,.57-.99-1.1-1.17,2.7,5.33,5.04,6.5,2.35,8.08,3.47,8.74,6.26,.66,2.79,.6,4.28,2.07,6.61,1.48,2.33,2.04,3.31-.69,4.33-2.75,1.03-1.77,.89,.24,2.13,2.01,1.24,6.05,3.31,11.76,3.79,5.68,.48,7.56,1.54,3.61-3.66-3.95-5.21-10.82-15.33-11.43-16.59Zm18.06,25.43c3.15,3.23,2.24,6.74,2.02,8.59-.22,1.85-3.62,.42-9.86-1.23-6.24-1.66-5.29-.84,.14,2.08,5.42,2.93,8.94,2.21,8.7,6.12-.24,3.9,4.98,.36,7.29-1.9,2.3-2.26,2.15-.25,11.79,1.2,9.66,1.46,11.63,3.2,10.09-1.03-1.55-4.23,4.42-3.89-4.15-7.92-8.57-4.04-29.59-9.58-26.01-5.9Zm-27.46,2.41c-3.63-4.02-8.17-4.6-8.21-1.18-.05,3.42,1.23,3.21,4.57,4.15,3.38,.93,5.95-.41,3.63-2.97Zm70.04,17.42c-3.94-1.35-4.75,1.62-2.13,4.09,2.63,2.46,6.66,1.62,10.63,1.43,3.97-.18-1.61-3.15-8.49-5.52Zm-45.37-484.61c-5.23,2.21-8.3,3.73-3.73,9.72,4.58,5.99,7.28,9.72,9.04,5.39,1.78-4.34,3.55-18.85-5.3-15.11Zm-41.86,64.29c-7.88,1.27-10.45,1.5-9.21,5.91,1.25,4.39,3.36,3.7,8.7,1.03,5.35-2.66,9.08-8.33,.51-6.94Zm16.41,6.71c-1.34,.41-1.74,3.48,0,6.25,1.74,2.79,5.09-.92,6.59-4.28,1.49-3.36-1.62-3.48-6.59-1.97Zm-86.04-213.72c-7.45,.25-18.65,2.89-12.44,3,6.21,.12,11.32,1.39,21.4,.82,10.07-.58,11.05-1.28,11.31-6.14,.25-4.86-6.58,1.85-20.27,2.32Zm-46.62-40.87c-7.61,2.36-5.72,3.94,3.22,7.87,8.95,3.94,9.21,2.08,8.21-5.33-1-7.41-6.96-3.94-11.44-2.54Zm531.45,193.79c-9.42,2.63-12.58,1.06-14.36,5.84-1.8,4.76-5.48,2.21-7.61,2.8-2.12,.59-5.14,13.92-6.63,11.94-1.51-1.98-2.03-3.07-4.21-7.64-2.16-4.58,.71-3.77-3.43-8.6-4.14-4.83-12.33-4.28-12.91-2.3-.57,1.98,5.66,3.64,3.54,5.87-2.13,2.25-7.19,4.98-9.12,6.6-1.92,1.62,3.69,.91,7.21,.08,3.52-.83,5.94,2.65,7.38,5.11,1.44,2.47-1.61,4.86-3.14,6.06-1.52,1.2,5.12,.91,7.78,1.4,2.66,.49,4.05,2.73,2.24,5.74-1.82,3.01,7.9,.43,13.29,.11,5.37-.31,6.79,3.69,14.92,1.14,8.14-2.55,12.01-2.37,19.42-7.85,7.41-5.48,6.84-4.21,11.76-7.75,4.91-3.52,3.74-4.62,3.94-8.54,.2-3.92,3.25,1.1,2.09-4.82-1.14-5.93-7.22-4.31-11.46-4.77-4.26-.47-4.09-3.79-6.22-4.84-2.12-1.06-4.94,1.76-14.49,4.43Zm629.45,510.11c-.4,1.41-1,3.01-1,6.13s-.37,6.49-.12,9.61c.25,3.13,.43,5.33,2.17,6.03,1.75,.7,2.93,1.39,5.79,.06,2.86-1.33,5.53-3.71,4.11-7.3-1.43-3.58-4.11-8.51-5.67-11.17-1.55-2.66-4.53-6.02-5.28-3.36Zm-2.28-4.3c.3,1.33,.73,1.05,1.36,1.97,.61,.93,1.3,.11,.43-1.1-.87-1.21-.76-1.36-.76-1.36,0,0-1.11-.38-1.11,.72m268.53,184.58c-.04,.14-.21,.21-.3,.33-5.11,5.17-9.75,3.72-18.52,6.44-8.95,2.77-24.43,11.81-25.56,15.81-1.11,3.98,0,4.51-1.11,3.98-1.12-.52-2.99-2.95-2.99-2.95,0,0-2.42,4.87-1.86,9.21,.56,4.34,2.61,6.94,2.43,12.5-.19,5.56-2.24,8.85-2.05,12.68,.18,3.83,6.52,11.12,8.21,15.64,1.67,4.51,2.8,3.3,3.72,11.46,.93,8.15,5.22,12.67,.93,17.01-4.28,4.34-7.45,3.47-2.23,7.99,5.22,4.52,9.52,7.47,17.9,4.52,8.4-2.95,6.17-5.56,12.69-6.95,6.52-1.38,7.83-2.77,13.42-3.12,5.59-.34,9.51,.17,11.58-3.81,2.04-4,.55-3.82,6.14-6.61,5.6-2.77,5.03-3.48,8.77-4.17,3.73-.69,6.15,1.92,11.18-2.08,5.03-3.99,1.3-4.35,12.49-4.35s15.86,1.57,19.96,2.95c4.11,1.39,10.82,5.03,12.49,7.64,1.69,2.61,3.92,5.74,4.66,5.74s1.69,.16,4.3-2.43c2.61-2.61,10.07-7.81,10.07-7.81,0,0-.38,5.56-2.05,7.64-1.69,2.08-1.69,5.03-1.69,6.08s4.3-3.31,4.86-3.48c.56-.18,1.12,7.64,1.67,8.33,.57,.7,2.25,.34,3.92,2.61,1.68,2.26,3.92,4,5.6,8.34,1.67,4.34,8.76,8.68,13.24,9.37,4.48,.7,8.39,.35,11.75-.17,3.35-.52,3.54-4.52,7.08-2.94,3.54,1.56-.18,4.85,8.21,4.16,8.4-.7,10.63-3.48,13.99-5.74,3.35-2.25,3.73,3.13,8.02-2.77,4.29-5.9,5.03-4.52,5.78-11.64,.75-7.12,.56-8.51,4.66-15.28,4.11-6.77,5.05-3.48,7.85-13.36,2.79-9.9,6.34-19.28,5.97-27.44-.38-8.17,.17-2.78-1.69-11.99-1.86-9.2-.56-8.15-6.53-11.97-5.98-3.82-7.45-2.79-8.95-8.17-1.48-5.39,.38-6.95-2.43-6.95s-5.22,1.21-6.9-2.43c-1.68-3.65-1.48-5.03-4.66-8.51-3.17-3.48-6.15-2.78-11.94-5.38-5.79-2.61-2.81-3.3-2.81-7.82s.33-9.31-4.28-11.4c-4.6-2.08-1.86,1.16-1.86-6.26s0-6.36-3.73-7.63c-3.72-1.28-4.98-1.16-7.34-5.68-2.36-4.51-5.47-11.92-6.58-14.92-1.12-3.02-2.48,.34-3.98,2.54-1.49,2.2-3.61,7.06-3.61,11.58s1.99,7.07,1.99,13.08-4.22,12.04-6.84,15.51c-2.61,3.48-4.72,.34-6.97-.58-2.23-.93-2.73-4.29-7.45-6.6-4.73-2.31-13.42-4.39-17.41-7.99-3.98-3.59-1.25-3.71,0-7.41,1.25-3.71,2.98-6.71,5.97-9.15,2.98-2.43,2.12-3.36-1.61-5.44-3.73-2.08-8.95-2.2-15.3-2.2s-10.07-.46-9.7,3.13c.39,3.59,4.1,4.97-1.23,3.93-5.35-1.05-9.95-1.51-12.31,1.03-2.36,2.56-2.87,4.07-4.23,9.5-1.37,5.44,.38,5.78-1.86,5.78s-11.07-4.28-14.05-5.54c-2.98-1.28-4.59-1.16-8.08,2.08-3.48,3.23-15.54,13.77-20.02,16.31-4.48,2.55-4.24,1.97-8.77,16.22Zm-165.91-156.53c-2.64-.36-4.11-1.05-.88,3.12,3.24,4.17,4.11,4.99,7.21,7.88,3.11,2.89,4.23-2.09,6.59,3.47,2.36,5.56,1.49,5.67,3.85,7.76,2.36,2.08,4.35,2.67,4.97,4.75,.62,2.08,1.37,5.32,4.11,7.64,2.74,2.31,2.74,1.97,4.35,6.48,1.62,4.52,4.11,7.76,5.35,11.58,1.24,3.82,8.33,7.41,11.93,12.04,3.61,4.63,9.71,11.35,10.7,9.49,.99-1.85,3.6,0,5.47-.69,1.86-.7,2.48-3.36,3.73-9.85,1.25-6.48-1.12-9.49-2.87-11-1.73-1.5-4.97-1.85-5.83-3.24-.87-1.38-2.36-6.13-4.48-7.64-2.12-1.5-2.62,.11-2.62-3.59s2.49-3.35-.62-5.44c-3.11-2.08-3.48-3.59-4.49-4.63-.98-1.04-7.7-2.66-9.44-4.52-1.73-1.85-9.07-5.21-12.55-8.69-3.48-3.46-7.34-6.25-8.45-8.79-1.12-2.55-4.61-4.64-16.04-6.13Zm72.35,74.67c-2.98,0-4.47-1.74-6.46,1.85-1.98,3.59-1.74,3.59,1.37,3.59s2.48,1.62,2.35,2.08c-.11,.46-1.48-.35,4.85,2.2,6.34,2.54,10.82,1.51,12.56,.57,1.74-.93,2.36,2.32,11.07,3.71,8.69,1.39,13.3-.8,18.89,.58,5.6,1.39,4.24-.7,.25-3.7-3.98-3.02-3.61-1.39-7.59-4.29-3.96-2.89-9.57-3.01-12.17-3.48-2.61-.47,2.23,2.78-5.71,1.73-7.97-1.03-5.1,.7-9.21-1.96-4.11-2.66-4.11-3.12-6.85-3.59-2.73-.46-3.35,.7-3.35,.7Zm63.16,12.73c-2.24,.7-6.84,1.98-4.72,2.89,2.12,.93,.48,1.51,7.08,.93,6.58-.58,12.31-1.39,13.17-2.78,.87-1.39-1.11-.46-3.86-1.28-2.73-.8-2.48,.58-6.21,1.05-3.71,.46-5.46-.81-5.46-.81Zm23.13-.47c-4.41,.54-3.86,1.51-.38,2.56,3.48,1.03,6.71,1.49,9.32,.8,2.61-.69,2.98-1.39,7.84-2.2,4.85-.81,6.46-.7,10.31-1.16l3.87-.46s-.38-.8-2.99-.69c-2.61,.11-4.46,.23-7.08,.23s-7.08,2.31-8.95,2.2c-1.86-.11-5.46-1.27-6.34-.7-.88,.58-.86-1.16-5.59-.58Zm24.87,5.67c-.07,.03-.11,.08-.16,.11-3.07,2.11-3.21,2.69-2.93,4.36,.27,1.69-.34,2.43-.34,2.43,0,0,4.53-.21,7.98-3.69,3.45-3.48,3.59-3.43,7.12-4.69,3.55-1.26,7.56-5.12,7.56-5.12,0,0-2.8,.61-5.87,.34-3.08-.26-6.11,1.61-7.09,2.43-.98,.83,.97,1.05-6.27,3.82Zm-25.99,1.83c-3.24-2.32-6.38-1.99-6.62-.57-.23,1.43-2.8,1.34,1.76,3.04,4.57,1.69,8.91,3.91,8.58,1.6-.33-2.3-2.33-3.08-3.73-4.07Zm-29.71-96.53c-1.87,2.66,1.74,1.97-1,4.29-2.73,2.31-4.84,1.27-7.57,4.74-2.73,3.48-6.85,5.9-8.58,7.18-1.74,1.28-7.35,2.77-9.83,6.14-2.48,3.35,.88,5.21,.88,5.21,0,0-1.5,.69-5.48-.81-3.98-1.5-4.22-3.35-4.22-3.35,0,0-2.86-.11-4.47,4.17-1.62,4.28-2.5,4.74,.35,7.3,2.87,2.54-1.98,2.66-1.36,4.39,.61,1.74,.63,4.99,2.36,5.33,1.74,.34,2.12-1.62,4.24,1.04,2.11,2.66,.37,10.18,3.1,10.54,2.74,.34,4.72-.81,7.08,.23,2.38,1.05,4.1,1.97,7.22,.93,3.11-1.04,6.46,0,8.08,.93,1.61,.93,7.45,2.89,10.31,2.66,2.87-.23,3.35,.47,3.85-3.59,.5-4.05,.13-7.87,3.61-10.99,3.48-3.13,3.61-3.13,3.85-6.03,.25-2.89,.25-5.9,2.37-8.91,2.1-3.02,3.35,1.74,4.48-.58,1.11-2.32,2.24-2.3,1.61-3.47-.62-1.16-3.85-1.16-5.09-3.36-1.25-2.2,.38-3.36-1.12-7.87-1.5-4.51-2.35-2.78-.25-5.33,2.12-2.54,3.85-3.01,4.1-4.98,.25-1.98,1.11-2.09,3.74-3.94,2.6-1.85-.42-.98-2.9-2.84-2.48-1.85-7.14-8.8-10.04-8.74-1.56,.02-7.46,7.06-9.32,9.72Zm367.37,245.79c-1.2-.88-2.22-.23,.52,3.01,2.73,3.25,2.98,2.31,4.71,2.43,1.74,.11,3.24,6.49,4.22,8.12,1,1.62,2.86,3.58,2.86,3.58,0,0,1.01,6.94,.13,10.08-.87,3.12-2.74,4.51-3.35,7.41-.62,2.89,2.85,2.08,5.1,3.01,2.23,.93,1.86,.93,.99,3.47-.87,2.55-3.48,3.71-3.48,4.17s5.1,3.35,7.72,.23c2.6-3.12,6.7-7.76,7.84-11.11,1.11-3.36-2-1.86,1.61-4.29,3.6-2.44,3.11-1.28,4.98-4.29,1.85-3.01,3.85-6.13,1.74-7.76-2.12-1.62-4.47,1.97-6.35,2.66-1.85,.7-3.35,.81-5.96-.47-2.61-1.27-3.11-1.27-4.1-3.59-1-2.31-2.24-3.59-2.24-3.59,0,0-.75,3.93-2.61,2.67-1.87-1.28-1.38-2.67-2.74-4.87-1.37-2.2-1.37-2.89-2.25-4.51-.86-1.62-.12-4.76-4.47-5.21-4.35-.46-3.74-.34-4.86-1.16Zm.75,42.03s-3.48,3-6.58,7.29c-3.11,4.29-3.61,5.9-4.6,8.22-.99,2.31-4.6,5.09-10.57,8.22-5.97,3.13-8.21,4.4-10.2,7.3-1.98,2.9-9.08,11.92-9.94,12.97-.88,1.03,3.35,2.08,7.71,2.08s11.18,3.93,14.91-.11c3.73-4.05,7.46-13.67,9.82-17.14,2.36-3.48,4.6-4.75,8.33-8.11,3.72-3.35,9.94-9.61,9.94-12.04s-1.62-6.36-1.62-6.36c0,0-1.37,2.66-4.61,2.31-3.23-.34-2.61-4.62-2.61-4.62Zm-29.32,44.47c-4.37-2.31-5.22,1.99-5.93,6.41-.71,4.42,1.89,.66,5.68-1.33,3.81-1.98,1.91-4.2,.25-5.08Zm-147.84-30.35c-4.92-1.64-4.1,3.02-3.35,6.49,.74,3.47,1.74,6.26,3.61,9.14,1.86,2.9,8.82,3.93,11.57,2.67,2.73-1.28,4.71-5.56,7.45-9.62,2.74-4.05,3.98-8.68,3.48-11.11-.5-2.44-3.98,2.2-6.22,3.24-2.23,1.04-5.22,3.71-9.45,2.55-4.22-1.16-5.35-2.78-7.09-3.36Zm-61.91-248.57c-3.98,.93-5.97-2.55-9.21-9.26-3.24-6.71-5.71-7.63-13.92-4.63-8.21,3.02-6.96,2.32-1.49,4.4,5.48,2.09,6.22,2.78,6.96,2.78s8.71,1.16,6.96,2.31c-1.75,1.16-9.2,2.31-4.48,5.56,4.72,3.25,2.74,.93,15.18,7.18,12.43,6.25,14.42,1.62,18.41,9.72,3.97,8.1,3.97,6.71,.74,8.81-3.24,2.08-7.46,4.16-5.71,4.4,1.73,.23,4.98,.93,13.42,1.39,8.46,.46,.5,5.32,9.94,5.32s11.94-3.01,15.67-7.41c3.73-4.4,4.48-2.08,12.43-.23,7.96,1.85,10.7,8.8,20.64,11.58,9.94,2.78,14.17,6.49,7.95,.7-6.21-5.79-8.45-9.95-16.91-16.68-8.45-6.71-8.94-7.41-11.43-12.5-2.49-5.09-11.19-11.12-20.88-15.05-9.71-3.94-15.25-4.48-26.61-7.64-11.69-3.24-13.67,8.34-17.65,9.26Zm-65.42-23.15c-3.72,2.6-4.18,1.01-6.97-.71-2.79-1.74-2.01,3.6-8.21,.71-6.2-2.89-8.51-4.33-15.18,.58-6.67,4.9-2.48,6.92-2.64,10.38-.16,3.46-5.58,13.27-7.59,16.87-2,3.61-1.99,4.9-.46,7.21,1.54,2.3,3.72,1.43,4.65,2.59,.93,1.15,0,10.24-1.09,13.27-1.08,3.03,2.64,3.61,6.51,2.74,3.88-.87,.47-1.15,.47-4.32s1.85-4.62,1.85-10.53v-8.64s1.09-.58,2.48,1.43c1.39,2.02,3.41,7.65,5.11,10.53,1.7,2.88,3.4,5.04,6.04,3.02,2.63-2.02,5.1-4.32,5.1-4.32,0,0-5.1-1.58-5.1-3.32s2.16-3.16-1.4-8.94c-3.56-5.77-5.41-6.06-.92-6.35,4.48-.29,4.34-4.76,6.96-6.06,2.63-1.3,6.35-.86,6.35-.86,0,0-2.64-2.74-6.66-1.59-4.03,1.15-7.59,1.73-11,3.61-3.4,1.87-6.35,3.03-6.97-.43-.62-3.46-1.07-4.32-.62-9.09,.47-4.76,5.88-1.15,9.91-2.3,4.03-1.16,4.03-.87,12.86-.29,8.82,.57,9.44-1.44,12.08-5.04,2.62-3.61,4.17-7.8,4.17-7.8,0,0-6.03,5.05-9.75,7.65Zm20.91-12.62c.79-1.44-6.47,4.97-7.83,6.25-1.37,1.28,0,3.12,.98,4.99,1,1.85,.75,8.21,1.12,9.6,.38,1.39,4.11,2.66,4.11,2.66,0,0-.12-4.28,1.24-6.25,1.37-1.97,0-4.4,0-7.99s-1.98-4.98,.38-9.26Zm-14.3,38.01c-5.71-2.18-7.84-.75-7.84,2.24s-.63,4.47,5.44,4.47,12.95-2.68,2.39-6.71Zm11.36-1.93c-1.4,.44-2.88,4.92-2.07,7.59,.79,2.69,1.75,.9,4.96,.3,3.2-.6,2.71-3.12,6.71-3.43,4.01-.3,12.32,2.83,12.32,2.83,0,0,1.76-2.08-4.62-6.1-6.41-4.03-9.31-3.73-17.29-1.2Zm-113.75-147.28s-5.71,.16-6.59,.16-2.86,2.21-4.29,3.08c-1.43,.86-1.43,2.07-.43,4.33,.98,2.26,2.66,2.38,5.46,3.13,2.8,.75,1.8-1.21,3.86-1.97,2.04-.75,2.61-2.61,3.05-4.28,.43-1.69,1.8-2.44,2.3-3.02,.49-.57-1.62-2.54-1.62-2.72,0-.16-1.75,1.28-1.75,1.28Zm67.33,8.04c-2.25-1.66-3.49,4.17-4.11,7.17-.62,3.02-1.37,4.98-.25,7.18,1.12,2.2,.62,2.9,.62,2.9l-3.24-2.44s-.87,2.79-.87,5.21-1,3.48,2.74,5.21c3.72,1.74,4.98,.8,5.46,3.48,.5,2.66,.5,3.81,2.99,4.28,2.48,.46,5.35,1.5,6.34,3.13,.99,1.61,.49-4.3,2.24-3.94,1.74,.35,3.74,2.55,4.98,4.52,1.25,1.97,3.1,2.08,3.1,2.08,0,0-2.85-4.75-1.61-5.33,1.24-.57,1.61-1.03-1.62-3.01-3.23-1.96-5.84-1.5-8.32-1.85-2.48-.34-2.48,1.74-4.35-3.12-1.87-4.86-.37-7.87-.37-8.92s1.36,1.62,2.86-1.74c1.48-3.35,1.86-6.02,1.61-9.26-.25-3.24,2.24-4.52,.37-4.63-1.87-.11-7.33,0-8.57-.93Zm29.58,62.22c.38,2.34-2.23-.66-3.21,.69-.98,1.35-1.49,1.08-3.07,1.74-1.58,.66-5.4,4.21-5.4,4.21,0,0-.05-2.29,.04-2.82,.09-.52-1.16-3.21-2.33-1.39-1.16,1.82-2.29,3-4.9,4.3-2.62,1.31-4.24,3.21-4.56,5.56-.34,2.34,1.58,2.26,1.58,2.26,0,0,1.03-.79,2.75-3.48,1.72-2.69,2.04-2.61,5.17-3,3.13-.38,2.88-.34,3.88,1.34,.98,1.71,.23,4.26,.32,6.13,.09,1.86-.09,4.12,3.11,5.21,3.23,1.09,1.69,.09,4.62-.17,2.94-.26,2.89-.18,2.47-1.66-.42-1.48-1.3-2.77-1.5-4.51-.18-1.74,1.7-2.48,2.3-2.82,.61-.34,.98,1.74,1.87,3.9,.88,2.18,1.25,2.08,1.63,.43,.38-1.65,1.39-5.55,1.03-7.64-.38-2.08-.56-3.69-.56-5.43s-1.45-3.82-2.29-4.43c-.84-.61-3.73-3.16-3.73-3.16,0,0,.43,2.38,.79,4.73Zm-14.31-14.17s.07-1.48-2.63-4.12c-2.71-2.66-2.77-3.42-6.9-4.13-4.11-.7-8.23,.36-6.49,4.78,1.74,4.42,2.25,5.07,5.73,5.6,3.47,.52,5.59-1.36,5.59-1.36,0,0,.26,.7-3.03,2.77-3.28,2.07-3.66,6.01-1.09,7.54s2.51,3.89,3.99,2.71c1.48-1.17,2.57-5.24,5.59-8.07,3.03-2.83,3.21-3.24,3.61-6.25,.38-3,.07-5.42,.07-5.42l-4.44,5.95Zm7.04-8.49c-.38,.3-2.53-.22-.29,1.95,2.24,2.16,4.29,2.65,4.01,4.25-.28,1.62-.09,1.92-1.34,1.74-1.26-.17-1.64-.48-2.2-.52-.56-.04-.64,1.04-.27,2.04,.36,1,.27-.13,1.34,1.56,1.07,1.7,.8,2.26,1.12,4.21,.33,1.95,1.16,1,1.16,1,0,0-.28-4.69-.14-5.64,.14-.96-.38-3.26,1.21-2.52,1.59,.74,1.16,3.53,2.1,.92,.93-2.61,.52-4.91,.06-6.99-.47-2.09-2.11-2.17-4.02-2.17s-2.75,.18-2.75,.18Zm-32.16,8.03c-.93,.23-1.5,1.13-2.06,4.3-.57,3.16-2.34,4.82-4.24,6.68-1.92,1.87-7.1,6.86-7.37,7.86-.3,.99-.34,.39,3.54-1.44,3.87-1.82,6.94-4.25,7.39-6.72,.48-2.48-.45-.95,2.96-2.56,3.4-1.61,1.67-2.13,1.81-4.66,.13-2.51-.34-3.9-2.04-3.47Zm205.85,94.82c-.42,3.22,.93,4.18-2.06,6.54-2.99,2.38-6.34,2.38-9.52,2.9-3.16,.52-.85-.53-4.78-.64-3.92-.11-4.92,.17-3.11,2.14,1.8,1.98,1.36,3.88,7.14,3.65,5.79-.23,10.57-3.35,14.31-4.51,3.73-1.16,3.42-4.17,3.73-5.56,.31-1.39-5.29-7.99-5.71-4.53Zm16.15,6.95c1.6,2.27,.99,1.92,3.04,4.92,2.06,3.01,5.3,3.53,7.71,4.35,2.42,.8,0-.87-1.8-3.3-1.8-2.44-1.94-3.77-4.61-6.2-2.67-2.43-7.15-3.76-4.35,.23Zm-209.98-194.68c-7.97,5.07-11.56,4.69-8.39,11.12,3.16,6.43,5.16,9.15,5.59,10.36,.43,1.21,2.05-.81,4.21-5.9,2.19-5.1,2.44-11.76,3.3-13.77,.88-2.03-1.99-3.54-4.72-1.8Zm136.45-249.79c.88,3.36,1.74,8.57-.25,9.14-1.99,.58-3.36,4.29-3.85,8.12-.5,3.81-1.49,8.67,.62,11.69,2.12,3,.62,3.23,.62,5.79s.75,9.03-.5,12.85c-1.24,3.82-1.98,4.75-1.48,8.8,.49,4.05,0,4.86,0,10.66s-.37,10.41-.12,12.72c.25,2.33,1.48-1.15,2.35-1.96,.87-.81,4.23-1.28,6.09,.7l1.88,1.97s2.98,1.27-1.12-7.53c-4.11-8.8-4.85-6.94-3.73-14.94,1.12-7.98,1.74-8.1,5.96-8.92,4.23-.8,6.46,4.99,6.97,5.56,.5,.59-.38-1.97-1.87-6.48-1.48-4.52-2.86-6.02-3.35-11.69-.5-5.67-2.25-10.43-4.48-12.04-2.24-1.62-1.11-4.29-.12-6.48,.99-2.2,1.37-5.56,.88-9.38-.51-3.82-1.63-9.15-2.24-11.23-.63-2.08-3.12,1.27-3.12,1.27l.87,1.39Zm-3.73,88.69c.25,2.54,.5,4.85-1.24,7.75-1.75,2.89-.5,3.59-1.49,7.64-.99,4.05-5.85,0-5.85,.82s-.75,3.71-1.99,4.74c-1.24,1.04-5.48,1.28-4.23,5.33,1.25,4.05,3.49,8.33,3.49,8.33,0,0,2.48-2.31,3.22-2.54,.75-.23,2.74-.8,2.74-.8,0,0-.37-1.16-3.11-2.44-2.74-1.27-2.49-3.94-2.11-4.75,.38-.82,3.85,.23,6.09,0,2.24-.23,4.11-1.39,6.85,.8,2.73,2.2,6.71,3.02,6.71,3.02,0,0,.49-3.25,1.73-5.56,1.25-2.31,4.85-1.28,8.46-2.31,3.61-1.05,6.34-1.62,5.1-3.13-1.25-1.51-1.12-4.86-1.88-7.41-.74-2.55-3.11-.11-4.97,.81-1.86,.93-4.22,.23-6.71-1.39-2.48-1.62-6.96-7.76-8.57-10.19,0,0-2.49-1.27-2.24,1.28Zm-11.13,37.97c-1.18,.58-2.7,3.65-2.42,7.03,.28,3.39,3.16-.26-.57,10.16-3.72,10.42-5.6,12.77-9.23,15.46-3.63,2.69-6.98,2.69-8.39,1.99-1.4-.69,.38-3.04,1.4-3.74,1.02-.69-3.18-.95-4.94-.69-1.77,.26-.1,2.26-.29,3.9-.18,1.66-3.63,6.08-3.25,8.08,.37,1.99,.37,2.61-1.87,3.3-2.25,.7-3.72-1.66-4.38-2-.66-.34-4.01,.62-8.4,1.21-4.39,.61-5.49,2.08-7.36,5.3-1.87,3.21-6.26,3.73-9.42,4.94-3.17,1.21-1.96,5.74-5.41,7.3-3.45,1.56-3.45,4.43-3.73,6.77-.27,2.34,2.14,.7,2.52,.52,.38-.18,.38-3.3,2.53-2.95,2.14,.34,2.42,.43,1.3,2.86-1.12,2.43-1.76,3.65-2.88,5.73-1.12,2.08,.37,3.04,2.04,5.13,1.68,2.07,3.27-.61,6.8-4.34,3.55-3.74,3.83-4.61,3.55-8.86-.29-4.25-1.69-4.35-4.29-5.55-2.61-1.22-3.18,0-.29-3.31,2.89-3.3,4.2-.08,6.16-1.56,1.96-1.48,6.72-1.39,11.28-2.52,4.57-1.13,8.96-2.6,9.14-1.13,.18,1.48,1.59,6.43,1.76,7.47,.19,1.05,3.19-1.48,6.25-2.61,3.08-1.13,.2-1.64-.09-3.64-.28-2,1.4-3.13,1.4-3.13,0,0,1.59,3.3,6.53,.96,4.94-2.34,5.32-3.3,6.62-2.96,1.3,.35,2.15,1.66,4.19,.35,2.06-1.3,2.44-.09,2.06,.96-.37,1.03,5.97-2,7.36-2.95,1.4-.96,.66-.09,.09-3.74-.55-3.64-2.33-3.9-1.3-8.59,1.02-4.69,.75-5.13,1.02-8.08,.27-2.95,1.39-3.38,2.14-3.56,.75-.16,.75-4.08,2.33-6.16,1.59-2.09,1.21-3.04,1.21-7.82s-2.61-3.91-2.79-7.29c-.19-3.39,.64-6.69,.64-6.69,0,0-5.31,2-5.86,3.21l-.57,1.21s-.83-.87-2.61,0Zm-34.8,52.18c-5.5,.92-9.4,1.51-12.66,2.55-3.27,1.05-3.97,2.48-3.46,5.75,.51,3.27,1.8,6.53,2.24,8.23,.45,1.7,2.24,0,5.31-1.63,3.07-1.64,2.88-6.4,5.82-6.4s1.85,3.4,5.81-1.37c3.97-4.77,.96-5.16,1.08-7.57,.13-2.42-4.15,.45-4.15,.45Zm348.42-257.16c-5.89-1.15-7.6-2.43-8.14-.3-.57,2.15-1.19,2.85,2.54,4.17,3.74,1.34,5.59-.98,9.08,1.62,3.48,2.6,4.47,2.48,7.14,2.14,2.67-.34,3.73-1.68,3.73-1.68,0,0-9.88-5.09-14.36-5.96Zm-67.34-92.77c-2.16,.61-3.93-1.48-3.36,3.82,.55,5.29,1.76,5.9,8.57,4.94,6.81-.95,1.68-.25,11.01-.95,9.32-.69,11.27-2,11.27-2,0,0-1.3-2.61-4.47-5.03-3.17-2.43-7.37,1.66-14.55,.43-7.17-1.21-8.47-1.21-8.47-1.21Zm-210.09-78.24c.09,2.03,9.32,7.72,12.68,9.38,3.36,1.66,5.96,.95,13.06,.17,7.09-.78,7.65-3.81,8.48-5.55,.84-1.74-3.35-1.13-8.1-2.08-4.77-.97-8.67,.86-10.35,0-1.68-.87,2.52-1.74-1.68-3.3-4.21-1.57-5.22,.52-6.16-.17-.93-.71-1.11-2.18-3.17-2.34-2.05-.18-4.85,2-4.75,3.9Zm-36.56,11.9c-3.21,1.29-2.98,2.43,.65,5.47,3.64,3.04,2.43,2.34,.84,4.52-1.57,2.17,0-.09,5.22,2.25,5.22,2.34,7.37,6.61,10.63,7.56,3.26,.95,5.5-.26,5.5-.26,0,0-1.12-3.48-4.2-7.64-3.07-4.16-9.71-5.38-10.92-9.03-1.2-3.65-3.16-4.7-7.73-2.87Zm33.29-17.01s-4.75-2.87-11.94-7.39c-7.17-4.52-9.88-5.73-12.31-6.08-2.44-.34-2.04,2.53-2.98,4.77-.93,2.26-1.58,1.82-5.32,0-3.72-1.82-7.46-4.6-11.27-5.48-3.83-.86-6.15,2.26-10.54,6.61-4.38,4.34-1.86,5.56,3.45,11.98,5.31,6.44,7.65,6.78,11.93,4.25,4.3-2.51,3.07-4.16,6.16-2.95,3.08,1.21,13.71-1.21,14.08-1.21s-.66,5.9,4.01,4.35c4.65-1.56,8.94-2.34,11.09-4.69,2.13-2.34,3.63-4.17,3.63-4.17Zm-322.91-124.03c-1.36,1.15-9.32,.46-13.43,6.94-4.1,6.49-6.95,1.98-9.08,5.91-2.1,3.93-3.85,8.68-3.85,8.68,0,0,3.74,4.4,7.71,4.06,3.98-.35,10.94,1.39,14.79,6.71,3.85,5.32,6.71,5.32,16.04,6.82,9.33,1.51,5.09,2.79,9.95,2.33,4.85-.48,11.55,.57,10.07-1.86-1.49-2.44-2.61-3.93-1.98-8.68,.61-4.75,4.96-4.52-.13-7.64-5.1-3.13-8.71-.57-8.45-1.16,.25-.58,4.6-2.32,2.86-2.43-1.75-.12-10.32-.57-11.31-5.44-1-4.86,2.35-5.22,4.09-5.57,1.75-.34,1.25-.92-3.73-4.51-4.97-3.59-11.68-7.3-11.68-7.3-3.11,1.62-.5,1.97-1.87,3.13Zm46.75,35.07c-3.61,.7-6.59,4.29-8.7,7.41-2.12,3.13-6.34,7.87-8.95,9.95-2.61,2.08-1.87,2.67,2.36,4.18,4.23,1.49,11.68-2.67,13.8-2.79,2.12-.11,3.73,3.13,10.45,2.31,6.71-.8,16.9-2.08,11.94-5.67-4.98-3.58-3.23-1.85-8.71-6.25-5.47-4.39-12.43-4.75-12.43-4.75,0,0,11.31-3.82,8.58-4.05-2.75-.24-8.34-.35-8.34-.35Zm-287.43-57.08c-6.51,2.34-4.23,3.48-8.46,6.84-4.21,3.36-1.38,4.28,7.72,2.08,9.08-2.2,9.57-3.13,15.41-5.79,5.84-2.67-4.97-6.61-14.67-3.13Zm14.41,16.33c-6.11,2.71-4.48,5.56-2.85,7.87,1.62,2.31,6.08-1.39,7.32,1.16,1.25,2.54,1.62,1.49,7.35-2.33,5.71-3.82,3.61-2.66,1.38-6.71-2.24-4.05-2.74-4.63-13.19,0Zm-33.97-1.68c-3.91,1.86-3.91,1.65-.2,3.39,3.74,1.74,12.78,3.12,17.44,.08,4.66-3.03,4.3-2.43-1.58-3.3-5.87-.87-11.29-2.26-15.66-.17Zm-57.63,7.03c6.07-.52,11.66-.77,16.51-.25,4.84,.53,3.07,4.69-5.89,5.65-8.95,.95,.84,2.34,7.18,2.08,6.34-.26,2.24-5.48,7.56-7.3,5.3-1.82,8.67-.7,15-2.95,6.34-2.26-3.63-4.43-11-4.26-7.35,.17-9.79,.6-16.04,.17-6.25-.43-11.29,2.38-17.72,3.48-13.24,2.25-1.67,3.9,4.39,3.38Zm47.54,1.66c-5.33,0-18.18,2.95-7.36,3.99,10.82,1.04,9.99,1.74,14.45,.09,4.48-1.66-1.48-4.08-7.09-4.08Zm37.69,2.26c-7.59-2.51-7.76-1.48-13.63-1.22-5.87,.25-8.2,3.91-4.37,5.47,3.81,1.57,6.42,.95,9.59,.44,3.16-.53,2.98-1.48,.93-2.26-2.06-.78,11.94-.95,7.47-2.43Zm31.88-9.38c-5.82,.72-6.16,1.74-6.71,3.64-.57,1.91,.84,1.48,6.99,.7,6.16-.78,9.04-1.65,13.05-3.82,4.01-2.17-.84-7.47-.84-8.43s-5.68,2.88-7.27,4.25c-1.59,1.39,1.66,2.79-5.22,3.66Zm-456.64,333.08c-2.93,8.1-7.77,11.84-2.05,9.59,5.71-2.25,11.44-9.22,11.15-3.24-.3,5.98-5.87,5.11-4.12,10.96,1.76,5.86,.44,5.36,9.98,7.48,9.54,2.12,1.75,1.38,4.11,6.98,2.34,5.61,3.95,7.35,1.46,8.97-2.49,1.62-9.82-5.11-10.26-2.25-.44,2.86,1.02,4.98,2.78,8.97,1.76,3.98-1.17,6.23-6.74,8.85-5.58,2.62-.74,4.24,3.52,3.99,4.26-.25,14.95-2.25,13.19,1.49-1.75,3.74-6.89-.62-10.54,5.61-3.68,6.23-17.18,11.58-10.13,11.21,7.04-.38,6.02-2.25,27-5.23,20.97-2.99,6.44-.25,20.23-4.49,13.79-4.23,9.39-5.36,1.76-4.11-7.63,1.25,4.99-7.49,3.23-15.57-1.76-8.11-6.74-.38-9.98-5.49-3.23-5.11-2.79-6.6,3.38-4.74,6.16,1.87,5.58-1.24-6.31-8.84-11.88-7.6-4.54-6.11-9.97-12.46-5.42-6.36-14.66-5.61-14.66-5.61,0,0,3.95-2.36,6.3-6.98,2.34-4.61,2.79-4.24,5.28-9.84,2.5-5.61-2.49-5.11-8.79-3.75-6.31,1.37-8.37,2-7.04-.49,1.32-2.49,2.2-3.48,5.13-6.61,2.93-3.12,3.51-4.73-1.91-3.48-5.43,1.24-6.25,1.12-10.85,3.24-7.04,3.24-2.21,7.72-5.14,15.82Zm-14.81,19.06c-9.58,3.78-6.89,6.24-5.27,7.6,1.61,1.38,4.54-1.25-4.4,3.87-8.95,5.11-9.09,10.71-4.4,11.83,4.71,1.12,4.11-2.74-.87,6.61-5,9.34-8.36,15.7,1.76,13.33,10.11-2.37,12.9-7.6,17.73-8.22,4.84-.62,5.72-4.49,5.72-10.35s-3.22-5.98,.59-10.84c3.8-4.85,4.1-9.97-3.39-12.33-7.48-2.38-1.46-3.87-7.48-1.5Zm120.45,130.77c-.52,1.31,.63,4.86-3.24,7.29-3.85,2.44,1.87,4.64,3.11,6.95,1.25,2.31,2.86-7.87,2.48-12.74-.36-4.85-.74-5.67-2.35-1.5Zm-1.86,19.22c-6.32,2.99-6.71,5.21-7.47,9.96-.75,4.74,5.11,.92,3.61,5.08-1.49,4.17-.11,6.37,6.47,2.44,6.58-3.94,2.86-7.53,3.85-12.51,1-4.98,1.87-8.91-6.46-4.98Zm97.46,51.17c-5.56-.54-8.02,2.95,1.49,4,9.51,1.04,13.8,1.21,17.35,.34,3.53-.87,.55-.17-4.12-3.3-4.66-3.13-7.64-.35-14.72-1.05Zm52.95,2.95c-7.66-1.65-5.58,7.65,2.25,6.26,7.83-1.39,4.84,.52,8.4-5.21,3.53-5.73-2.61,.69-10.64-1.05Zm-190.46-43.12c-6.22,.8-6.71,2.9-1.86,4.17,4.85,1.27,4.22-.23,6.96-2.21,2.74-1.97-2.35-2.31-5.1-1.97Zm-376.65-113.35c-3.82,3.03-8.21,7.47-13.62,17.19-5.4,9.72-4.84,8.69-10.07,14.07-5.22,5.39-2.61,4.16,13.62,7.3,16.23,3.12,14.91,5.56,18.65,4.52,3.72-1.04,4.48,2.07,4.48,5.39s3.53,1.38,5.21-3.82c1.68-5.21-1.68-14.59-5.03-19.97-3.36-5.39-4.12-5.39-9.33-4-5.21,1.39-3.55-1.21-5.4-5.38-1.87-4.17-4.86-.87-.38-7.12,4.48-6.26,5.59-11.11,1.86-8.17Zm-496.36-11.11c0,5.16,5.46,14,9.57,16.9,4.1,2.89,3.24,1.28,1.37-4.87-1.87-6.13-.37-6.13-1.25-10.07-.87-3.94-9.69-3.82-9.69-1.97Zm27.23,28.25c1.07,1.11,4.35,5.79,10.06,9.61,5.72,3.82,7.22,4.28,13.18,6.02,5.97,1.74,8.58-.58,4.72-4.05-3.85-3.48-.62-3.13-7.58-4.75-6.97-1.61-8.44-1.03-11.94-3.24-3.48-2.19-10.81-6.02-8.44-3.58Zm-151.59-57.6c-4.48-1.02-6.25-1.21-9.33,1.21-3.07,2.43-3.91,4.52-2.23,7.21,1.68,2.69,.65,1.21,4.56-1.48,3.93-2.7,2.07-3.04,7-4.26,4.95-1.21,3.92-2.87,3.92-2.87,0,0-1.21,.79-3.92,.18Zm-1.58-5.98c-3.02,1.81-4.02,3.3-.66,2.6,3.36-.7,2.89-2.6,5.03-2.17,2.16,.43,2.89-.43,2.89-.43,0,0-4.1-1.92-7.27,0Zm-86.07-13.81c-4.1,2-7.99-.34-5.45,1.17,2.52,1.53,5.97,2.95,8.67,2.65,2.71-.3,4.49-.34,3.5-1.65-.98-1.3-1.25-1.64-1.3-2.99-.1-1.83-1.3-1.17-5.41,.82Zm1376.33,565.86c-4.73,10.43-14.68,5.33-22.64,12.97-7.95,7.64-6.72,5.33-.75,15.98,5.97,10.65-4.96,9.49-7.72,22-2.73,12.5,3.24,10.19,6.47,20.84,3.25,10.64,4.73,7.41,10.7,6.02,5.96-1.39,10.19-4.17,10.19-4.17,0,0,1.01-9.26,4.97-22.92,3.98-13.66,6.71-23.62,7.46-32.65,.75-9.03,1.49-15.51,3.49-12.74,1.98,2.78,2.23,2.78,2.23-1.62s-2.39-16.77-6.21-19.68c-6.72-5.1-3.48,5.56-8.2,15.97Zm6.97-712.26c-6.52,1.49-9.61,5.48-4.86,7.03,4.76,1.56,4.29,.7,12.13-2.08,7.84-2.78-.84-6.43-7.26-4.95Zm121.82-118.32c-2.22-3.48-4.21,1.16-27.09,11.12-22.89,9.95-22.64,1.39-44.02,18.29-21.39,16.91-16.66,14.81-17.91,25.01-1.25,10.18-6.21,5.78-8.21,15.04-1.98,9.26-12.92,9.73-7.46,17.37,5.48,7.64,12.68,12.04,24.11,15.28,11.45,3.24,14.67-.23,12.2-1.39-2.49-1.16-11.19-14.82-9.45-30.33,1.74-15.51,7.46-13.2,12.44-18.99,4.97-5.79,17.9-20.84,26.36-25.94,8.22-4.95,30.09-11.87,41.11-15.66,.31-.11,.7-.09,.91-.31,8.7-9.72-.75-6.02-2.99-9.49Zm-61.65,104.08c-2.71,.38-3.98,.47,1,5.33,4.97,4.86,9.32,8.57,7.7,2.08-1.62-6.48-6.21-7.76-8.7-7.41Zm81.67-47.12c-3.63-1.7-5.58-3.48-6.46-.7-.87,2.78,4.11,6.49,8.95,7.41,4.85,.93,.99-5.09-2.49-6.71Zm-855.99,291.41c-5.53-2.77-10.93-4.98-14.54-4.98s.75,3.81,6.46,6.94c5.73,3.12,11.31-.34,8.08-1.97Zm-13.17,23.28c.3-4.59-3.06,5.27,1.05,7.47,4.11,2.2,6.23,2.77,8.84,.11,2.61-2.66,.48-.98-3.12-1.61-3.6-.64-7.02-2.14-6.77-5.96Zm1628.99-159.54c-6.71,.7-11.75-1.22-11.75-1.22,0,0-.38,5.39-2.42,7.99-2.07,2.6-.57,5.39-.57,5.39,0,0-6.71-2.95-10.62-4.34-3.92-1.39-7.46-.17-9.71-6.08-2.24-5.9-8.94-4.85-14.17-4.85s-3.72-6.77-3.72-6.77l-3.17,.16c-3.18,.18-2.61,7.82-6.71,10.25-4.12,2.43-16.98,4-16.98,4,0,0,8.21,5.9,9.9,10.76,1.66,4.86,4.84,9.55,4.84,9.55,0,0-.75,2.26-10.64,.34-9.89-1.9-9.31,1.92-19.95,6.25-10.63,4.34-22.75,10.95-25.74,13.38-2.99,2.43-3.17,1.04-12.49-1.21-9.32-2.26-11.18,2.6-13.62,3.82-2.42,1.21-1.48-5.56-1.48-5.56,0,0-3.36,0-7.47,2.08-42.51,21.59-13.19,20.45-14.54,24.82,0,.02-4.48,16.85-4.48,16.86-6.25,18.61-10.58,8.86-15.85,23.61-16.78,46.89-26.49-7.23-26.49-19.62,0-7.65-1.67-17.54,3.18-19.8,41.72-19.43,3.91-2.7,43.08-29.52,12.69-8.68,5.78-13.9,8.57-16.32,2.8-2.43,7.28-3.13,7.28-3.13l-6.9-.69c-6.9-.69-7.09,.87-12.5,6.77-5.4,5.9-9.69,6.95-8.58,2.43,1.12-4.51,1.3-9.2-2.79-6.76-4.1,2.43-5.79,2.07-13.43,3.65-7.66,1.56-15.85,5.2-22.75,13.89-6.9,8.69-2.98,7.64-.75,9.72,2.23,2.08-11.01,1.56-17.34,1.05-6.35-.52-3-1.74,.74-2.96,3.73-1.22-5.6-2.26-13.81-3.99-8.2-1.74-5.03,1.39-9.87,3.3-4.85,1.92-4.67-1.73-7.09-2.25-2.43-.52-13.24-1.21-20.88-2.09-7.65-.86-7.09,.52-9.14,3.13-2.06,2.61-16.22,15.12-22.38,22.24-6.16,7.12-13.8,8.68-20.7,15.28-6.9,6.59-8.02,6.25-2.43,7.3,5.59,1.03,6.35,.51,7.27,5.72,.94,5.21,3.55,6.94,9.52,6.94s4.29,1.57,5.4-2.95c1.12-4.52-1.49-9.72,3.55-5.73,5.03,4,9.13,6.95,10.63,12.68,1.5,5.73-.38,9.9-2.98,19.46-2.62,9.54-3.54,23.27-7.09,30.21-3.54,6.94-6.34,12.16-10.26,19.8-3.91,7.64-22.94,26.92-27.22,28.65-4.3,1.73-7.08,1.91-9.14-1.91-2.05-3.82-3.54-3.13-8.4,1.21-4.84,4.35-7.08,6.95-8.94,13.89-1.87,6.95-5.98,6.95-10.26,12.16-4.28,5.21-5.4,4-2.24,9.9,3.17,5.9,8.39,12.16,8.95,17.88,.56,5.74-2.62,14.07-4.66,17.73-2.06,3.64-11.75,5.38-11.57,3.64,.2-1.74,.37-10.42,0-15.45-.38-5.03-4.11-5.03-2.8-6.6,1.32-1.56,6.72-4.16,2.8-7.82-3.92-3.64-6.71-.52-8.39-4.85-1.68-4.35,.75-7.82-.18-9.38-.94-1.57-3.74-3.3-9.52-3.82-5.78-.53-7.09,5.21-8.4,.16-1.3-5.03,.57-5.55-2.04-7.63-2.62-2.08-4.85-.7-11.55,5.03-6.72,5.73-8.03,4.52-13.63,6.94-5.59,2.44-5.59,3.82-4.29,5.74,1.31,1.91,5.97,10.24,9.88,11.11,3.92,.88,6.72-1.74,12.68-1.74s7.09,.87,5.6,3.12c-1.5,2.26-5.6,4.53-12.86,11.81-7.27,7.3-5.05,5.91-2.61,8.86,2.43,2.95,5.97,6.59,8.57,12.33,2.62,5.72,0,7.8-.37,11.1-.38,3.31-.93,8.35,3.92,13.56,4.84,5.2,1.48,3.47,.93,5.38-.55,1.91-8.76,16.84-12.49,24.32-3.74,7.46-3.74,8.16-15.85,16.67-12.13,8.51-17.54,9.38-24.06,10.58-6.53,1.22-12.12,3.13-15.48,4.53-3.35,1.39-2.06,4.16-2.41,5.9-.39,1.74-3.55,.17-3-2.43,.57-2.6,.2-4.52-1.48-5.21-1.68-.7-6.9-2.79-12.31,2.43-5.41,5.21-11.95,5.56-14.18,12.17-2.23,6.59-1.85,4.34,.57,7.12,2.41,2.77,14.17,14.07,16.96,20.14,2.8,6.08,3.36,10.61,3.55,17.2,.18,6.6-13.44,18.76-19.4,22.75-5.97,3.99-7.28,7.81-6.35,1.56,.93-6.25-2.61-9.9-6.9-14.58-4.29-4.69-17.34-8.51-19.77-9.04-2.42-.52,.93-4.33-.75-4.16-1.66,.18-5.58-.87-5.03,5.21,.55,6.08-3.91,4.17-4.84,10.25-.94,6.08-2.06,12.32,1.86,11.81,3.91-.53,3.17,5.39,6.16,11.99,2.98,6.59,1.85,2.95,9.32,9.03,7.47,6.07,5.59,5.03,7.28,11.12,1.66,6.08,1.11,9.55,4.85,15.11,3.71,5.56,3.91,6.77-2.25,3.64-6.16-3.12-11.18-6.94-13.62-10.76-2.43-3.82-3.9-13.55-5.4-18.41-1.5-4.86-11.56-10.59-14.91-14.07-3.36-3.48-1.31-6.25,.37-14.24,1.67-7.99-.75-15.63-1.31-20.49-.55-4.87-4.47-18.5-6.35-23.1-1.86-4.6-1.11-3.99-4.01,0-2.89,4-5.12,6.43-7.92,6.43s-6.9-.44-6.53-2.26c.38-1.82,3.17-8.76,2.34-11.37-.85-2.6-3.46-10.95-7.37-13.9-3.92-2.95-8.4-7.03-10.91-13.89-2.52-6.85-3.17-4.86-8.02-1.3-4.85,3.56-15.95,3.99-21.27,4.43-5.31,.43-.93,3.04-2.23,5.65-1.31,2.61-7.55,5.99-20.14,19.1-12.59,13.11-14.49,13.54-17.75,14.94-3.27,1.38-5.3,.95-5.19,6.33,.09,5.39,.58,8.31-.04,13.12-.62,4.8-2.05,6.77-3.43,9.84-1.35,3.07-2.84,8.62-3.28,11.53-.43,2.89-3.24,6.25-7.34,9.2-4.1,2.95-4.1,2.43-5.97-1.91-1.86-4.34-11.56-21.01-19.39-36.64-7.84-15.63-5.97-18.41-6.72-22.93-.75-4.52-.89-31.62-.56-33.69,.2-1.16-3.79,3.18-4.91,5.38-1.12,2.21-1.06,4.87-5.53,5.27-4.48,.41-5.41,.47-9.63-3.76-4.23-4.22-6.17-6.59-5.43-6.48,.75,.12,5.6-.47,8.41-1.85,2.79-1.39,1.85-2.9,1.85-2.9,0,0-3.03,.34-6.65,.52-3.62,.17-1.99-.81-6.77-2.72-4.79-1.91-5.85-2.08-6.66-4.22-.81-2.14-1.98-5.16-2.67-6.78-.68-1.61-1.24-1.74-2.04-3.75-.81-2.02-3.11,.34-8.27,.46-5.16,.11-3.98,.34-10.2,2.78-6.21,2.43-7.15,1.57-14.18,1.34-7.03-.23-11.93-3.25-15.48-4.46-3.54-1.21-4.1-.7-9.32-1.45-5.22-.75-4.1-3.41-5.41-5.62-1.3-2.2-3.48-2.72-10.32-2.2-6.82,.52-7.08,.18-10.93-.87-3.85-1.03-4.17-2.43-7.4-5.67-3.23-3.25-2.17-.69-4.29-2.38-2.11-1.67-4.22-3.98-5.9-8.5s-1.3-5.5-3.24-7.58c-1.93-2.08-1.8-1.57-7.84-1.57s-3.28,.4-4.03,.81c-.75,.41-2.61,3.07-4.29,5.15-1.67,2.08,1.36,4.98,3.79,7.82,2.43,2.84,.31,2.54,4.17,6.83,3.85,4.29,2.54,3.88,5.28,9.84,2.73,5.96,4.48,7.47,5.09,9.26,.63,1.79,1.19-.7,1.81-2.32,.62-1.62-.25-7.41-.25-7.41,0,0,1.18,2.43,2.23,6.72,1.06,4.28,.31,4.34,1.06,7.07,.75,2.72,0,2.36,4.66,2.36s7.52,.18,12.68-1.03c5.16-1.21,7.39-5.9,9.81-7.3,2.44-1.39,2.44-6.26,4.04-5.73,1.61,.52,.07,5.73,1.56,9.14,1.49,3.42,1.86,2.2,5.48,3.71,3.59,1.51,4.59,2.38,8.26,3.76,3.67,1.39,1.18,1.57,3.17,5.21,1.98,3.65,1.87,1.62,3.8,2.89,1.94,1.27,1.18,.34-.19,4.69-1.36,4.35-1.62,4.4-4.85,7.93-3.24,3.53-3.24,2.43-3.73,2.32-.49-.11-1.49-2.61-1.49-2.61,0,0-2.06,4.22-2.36,9.15-.31,4.92,1.62,3.12-4.3,5.49-5.9,2.37-9.45,3.36-11.74,5.33-2.3,1.97-2.3,4.57-3.61,5.85-1.3,1.27-3.12,.11-7.08,1.5-3.98,1.39-2.87,1.1-6.22,3.66-3.35,2.54-.38,2.31-4.66,3.93-4.3,1.62-12.06,5.39-15.98,5.8-3.92,.4-3.11,1.44-4.1,2.89-1,1.45-1.07,2.2-6.03,2.95-4.97,.75-11.18,1.46-14.24,2.96-3.05,1.5-7.52,4.86-10.75,4.22-3.24-.64-2.36-.75-3.42-3.65-1.06-2.89-1.62-4.98-2.12-9.72-.49-4.75-2.18-11.98-4.92-16.55-2.73-4.57-2.67-4.87-5.65-9.67-2.98-4.8-4.98-8.85-7.58-10.71-2.61-1.85-3.91-1.97-5.16-3.35-1.24-1.38-.5-6.14-1.8-10.19-1.3-4.05-2.18-7.99-4.11-10.25-1.93-2.26-4.91-4.85-7.58-9.66-2.66-4.81-2.85-5.34-6.7-12.74-3.87-7.41-5.24-8.34-7.78-13.31-2.55-4.99-.88-4-1.8-6.95-.94-2.95-3.36,4.8-5.28,6.31-1.93,1.51-2.92,.75-4.48-3.65-1.55-4.39-2.87-8.27-4.04-6.53-1.19,1.73-2.12,3.47-.51,8.17,1.62,4.67,2.38,3.69,4.48,8.15,2.12,4.46,7.89,15.64,10.25,20.27,2.36,4.62,1.43,2.37,3.62,9.38,2.18,7,3.41,7.87,6.33,10.76,2.94,2.9,2.44,1.39,3.74,6.14,1.31,4.75,.81,10.31,1,13.21,.18,2.89,1.79,4.39,5.28,7.29,3.48,2.89,1.74,1.85,3.35,4.92,1.62,3.07,3.23,7.41,4.17,10.42,.93,3.01,2.05,5.1,4.78,6.43,2.74,1.33,3.48,1.51,6.22,2.49,2.73,.98,1.79,1.67,3.66,4.05,1.87,2.38,5.48,4.16,7.72,7.94,2.23,3.76,.74,2.66,.61,6.3-.12,3.65-1.3,1.97,.32,3.88,1.62,1.91,4.41,3.48,9.13,6.59,4.73,3.13,.95,.94,5.17,.82,4.24-.12,5.11-1.22,9.64-2.21,4.53-.98,10.38-2.66,15.97-3.99,5.6-1.33,11.06-2.2,13.93-3.13,2.86-.92,2.93,2.21,.74,7.07-2.18,4.86-3.22,8.91-5.09,12.86-1.87,3.94-2.56,4.28-3.92,7.47-1.37,3.18-10.58,16.2-12.49,20.32-1.93,4.11-4.23,7.4-7.03,10.83-2.8,3.41-11.57,9.6-15.67,12.9-4.1,3.3-3.05,3.3-6.09,7.18-3.05,3.87-12.31,14.64-14.81,18.46-2.48,3.82-3.9,5.21-5.77,8.97-1.86,3.76-7.14,9.08-7.46,11.81-.31,2.72-3.29,3.07-1.06,5.45,2.25,2.37,3.42,2.77,4.23,5.78,.81,3.02-2.49,6.43-.37,11.93,2.11,5.5,.62,1.57,3.8,5.96,3.16,4.39,3.04,7.18,3.34,13.61,.31,6.42,.62,12.79-.37,16.95-.99,4.16-2.36,6.89-3.79,10.66-1.43,3.76-9.26,6.31-13.87,8.33-4.59,2.03-4.4,1.21-6.53,3.76-2.11,2.55-8.2,7.87-10.25,11.81-2.07,3.94-3.61,3.53-2.8,6.03,.8,2.49,2.53,5.73,4.66,10.36,2.11,4.62,.62,4.28,.12,8.28-.5,3.98-.43,3.36-.99,8.21-.57,4.87-6.28,4.98-12.81,7.53-6.53,2.54-4.16,1.28-4.92,4.8-.74,3.53-.29,10.48-.56,14.64-.25,4.17-2.23,2.49-5.78,7.64-3.55,5.15-4.97,7.59-8.76,13.78-3.8,6.19-3.48,5.33-8.27,9.21-4.78,3.87-8.58,4.85-10.68,9.31-2.12,4.46-4.54,1.51-14.8,4.8-10.26,3.3-2.8,1.69-12.55,2.78-9.76,1.11-13.25,1.86-18.41,2.78-5.16,.93-4.48-.28-7.65-3.76-3.16-3.48-3.66-3.2-5.08-6.08-1.44-2.89-.38-3.59-.82-8.8-.43-5.21-.87-5.38-2.79-8.63-1.93-3.23-1.81-3.75-3.92-8.91-2.11-5.15-3.05-6.6-5.42-10.07-2.35-3.48-3.04-2.37-5.21-4.63-2.18-2.26-2.24-4.23-2.74-7.41-.49-3.18-1.25-10.71-2.3-18.64-1.06-7.93-.12-3.71-1.38-7.06-1.23-3.35-2.73-7.41-4.84-11.86-2.12-4.46-1.37-3.3-4.6-8.81-3.23-5.5-2.93-4.74-4.98-9.54-2.05-4.81-2.35-2.67-2.48-4.53-.13-1.85,1.05-5.21,1.18-8.44,.11-3.25,1.18-7,1.98-11.99,.82-4.98-1.11-4.92,1-8.34,2.11-3.42,4.29-6.53,5.67-10.42,1.37-3.87,1.17-4.05,1.17-8.97s-.5-4.51-1.98-8.63c-1.49-4.11-2.05-8.92-3.85-15.51-1.8-6.6-1.75-6.36-2-8.92-.24-2.54-1.48-8.28-2.73-11.75-1.24-3.47-1.86-2.08-4.59-4.34-2.74-2.26-.93-1.28-3.3-3.77-2.36-2.49-1.93-3.3-4.23-6.02-2.3-2.72-2.61-2.84-4.48-5.9-1.85-3.07-.85-1.21-.61-6.37,.24-5.15,1.73-14.99,2.67-20.67,.93-5.67,1.12-5.38-1.06-7.76-2.18-2.38-3.74-5.79-5.41-6.36-1.68-.58-5.72,.57-11.63,.46-5.91-.12-5.66-1.44-8.2-4.4-2.56-2.94-5.92-7.06-7.1-8.16-1.18-1.1-3.23-1.05-13.29-.3-10.08,.75-3.98,.93-10.71,1.98-6.7,1.04-9.32,4.57-14.48,6.37-5.16,1.79-6.65,1.33-15.72-.47-9.07-1.8-13.61,2.09-18.22,4.06-4.6,1.97-6.84,1.03-10.19-1.28-3.35-2.31-5.35-4.23-10.51-6.77-5.15-2.55-3.98-3.93-9.07-6.43-5.11-2.49-3.43-2.61-7.65-6.6-4.23-3.99-4.53-8.04-7.46-12.22-2.92-4.17-5.42-10.01-9.33-14.41-3.91-4.4-7.76-13.26-9.69-15.91-1.93-2.67-3.41-2.9-3.36-4.17,.06-1.27,3.8-8.74,5.35-12.62,1.56-3.88,1.98-3.36,2.66-5.79,.69-2.43-.93-9.44-2.42-13.26-1.5-3.83-3.17-11.87-4.34-15.63-1.19-3.76,.61-3.82,2.05-5.95,1.43-2.15,4.85-6.61,8.39-13.2,3.54-6.61,5.53-9.85,7.4-12.92,1.86-3.07,6.15-12.49,8.96-15.04,2.79-2.55,9.94-7.64,12.98-9.21,3.04-1.56,5.53-2.43,6.03-3.82,.49-1.39,1.8-12.85,2.67-17.65,.88-4.81-.3-7.47,3.17-9.32,3.48-1.85,9.08-5.33,12-6.95,2.91-1.62,3.35-4.05,4.84-7.58,1.49-3.54,2.12-7.99,4.36-9.44,2.23-1.44,1.62,.64,4.53,2.61,2.92,1.97,3.42,2.09,4.79,2.44,1.37,.35,2.61-1.11,6.03-1.16,3.41-.06,3.79,.41,5.84,1.51,2.04,1.09,.93,1.1,6.78-2.49,5.85-3.59,10.5-5.79,18.15-8.63,7.64-2.84,12.86-4.4,16.41-4.8,3.54-.41,1.74,.05,5.72,1.62,3.98,1.56,4.16,2.26,4.97,1.09,.81-1.16,3.42-4.4,5.1-4.28,1.68,.11,3.61,.81,7.9,1.57,4.3,.75,6.09,.34,7.84-.58,1.73-.93,3.97-2.78,4.4-2.78s4.12,1.28,7.09,2.38c2.98,1.1,3.04,1.27,2.43,2.02-.62,.75-1.49,1.57-2.92,4.8-1.43,3.25-.75,1.51,.61,4.93,1.36,3.41,2.36,3.24,1.74,5.73-.63,2.49-3.42,4.8-5.47,7.23-2.05,2.44-1.55,2.84,3.48,5.68,5.04,2.83,3.85,2.37,9.51,4.91,5.66,2.55,5.9,1.62,12.49,3.59,6.58,1.97,5.78,2.2,8.08,4.87,2.3,2.66,2.43,5.21,6.4,6.59,3.98,1.39,8.21,1.39,10.51,2.84,2.3,1.44,4.17,3.53,7.28,4.12,3.1,.57,3.09,.98,4.59-1.28,1.5-2.25,2.73-4.28,2.18-5.44-.57-1.16-2.25-2.95-1.88-4.05,.38-1.1,2.99-5.49,3.8-6.82,.82-1.34,2.87-1.69,7.78-1.92,4.91-.23,8.32-.93,9.13,1.97,.8,2.9,.62,1.57,4.41,3.13,3.8,1.56,4.17,1.56,7.34,2.78,3.17,1.21,1.56,2.94,3.17,2.83,1.62-.11,4.23-.34,7.21,.52,2.98,.87,8.45,3.48,14.23,3.71,5.79,.23,8.02-1.51,8.9-1.92,.87-.39,4.97-5.43,7.4-1.96,2.42,3.47,5.58,3.53,11.67,3.18,6.1-.34,6.16-1.27,7.53-2.84,1.37-1.57,5.03-7.47,6.22-11.52,1.17-4.05,4.4-12.9,5.27-16.91,.88-3.99-.06-7.12-.37-9.49-.31-2.38,.25-4,1.19-6.66,.93-2.66-2.93-1.04-4.49-.52-1.55,.52-1.98-.81-3.41-1.22-1.43-.39-2.93-.75-3.98,1.92-1.06,2.66-.57,3.99-6.28,3.71-5.71-.3-4.66-.64-6.53-2.67-1.86-2.02-5.03-2.54-7.59-3.3-2.54-.75-2.79-.64-2.98,.98s-.25,2.72-2.11,3.36c-1.87,.64-6.09-.11-9.64-1.8-3.54-1.68-4.6-2.48-8.08-5.91-3.48-3.41-2.98-3.41-4.41-8.67-1.43-5.27-1.43-9.79-.8-11.35,.61-1.57,1.62-2.02-1.06-1.21-2.68,.8-4.48,1.26-2.68-2.72,1.81-4,3.48-4.17,5.35-4.7,1.86-.52,4.72-.57,8.26-.8,3.54-.24,6.27-2.02,7.52-2.55,1.25-.53,3.8-1.39,2.49-1.74-1.31-.34-5.22-.75-4.54-1.85,.68-1.1,1.12-1.04,3.23-1.27,2.12-.24,5.41-.35,8.22-.52,2.79-.18,4.47,.34,5.41-1.34,.93-1.68,2.1-4.17,4.28-5.5,2.18-1.33,4.54-.64,10.26-.87,5.71-.23,4.84,1.16,6.71,2.49,1.87,1.33,3.11,.69,5.54,1.16,2.42,.47,.93,1.91,2.79,2.66,1.87,.75,5.29,1.51,9.44,2.84,4.17,1.33,1.44,.75,6.53,.75s4.92,.05,8.96-.64c4.03-.7,5.72-2.2,8.58-4.23,2.86-2.02,.87-6.43-.18-9.84-1.07-3.41-5.54-5.61-7.59-7.17-2.05-1.57-6.46-6.55-8.82-8.57-2.38-2.03-5.11-2.61-7.71-4.05-2.61-1.46-7.27-3.83-7.71-5.74-.43-1.91,1-1.96,4.85-2.89,3.85-.93,2.62-1.74,3.35-3.77,.75-2.02,1.07-1.97,4.23-3.12,3.17-1.16-3.66-3.59-4.6-4.91-.93-1.34,2.12-.94,5.29-1.69,3.17-.75,3.43-2.25,3.85-3.59,.44-1.33,.3-1.97-3.42-1.9-3.72,.05-8.45,1.62-14.73,3.3-6.28,1.67-3.41,1.74-7.21,4.69-3.8,2.95-4.04,1.67-3.54,3.3,.5,1.62,.74,3.18,4.59,5.21,3.86,2.02,2.23,2.08,3.3,2.38,1.06,.28,3.66,.69,2.48,1.04-1.18,.34-2.25,2.19-3.98,2.19s-2.49,1.8-5.47,3.48c-2.98,1.68-4.3,1.91-6.46,2.26-2.17,.34-3.73-.35-3.43-4.06,.32-3.71-1.12-1.21-3.42-2.07-2.3-.88-3.17-1.86-3.17-1.86,0,0,2.3-.81,4.61-2.25,2.31-1.44,3.35-2.31,4.48-5.15,1.11-2.84-2.49-1.28-5.1-1.62-2.61-.35-1.87-.58-4.41-.93-2.54-.34-3.54-2.37-3.54-2.37,0,0,1.17,.46,3.35,.23,2.17-.23,1.69-.81,2.48-1.39,.81-.57,1.44-1.1,.81-1.1s-3.3,.29-5.09,.17c-1.81-.11-2.87-.4-5.48,0-2.61,.4-1.56,1.39-3.42,2.6-1.87,1.22-1.93,1.62-2.92,3.43-.99,1.79-1.31,1.5-1.99,2.66-.68,1.16-.62,4.05-.62,6.03s-.5,2.6-1.68,4.22c-1.18,1.62-1.18,.93-3.17,1.9-1.98,.99-.68,1.69-.93,3.66-.25,1.97-.93,2.72-1.12,5.27-.18,2.54-1.18,2.66-2.73,4.45-1.56,1.79-2.43,1.79-2.55,3.65-.13,1.85-.43,2.66,0,6.25,.43,3.59,1.43,2.66,4.23,6.31,2.79,3.65,4.29,2.26,3.29,4.11-.99,1.85-.8,1.16-4.23,.75-3.42-.41-3.97,.11-6.45,2.49-2.48,2.37-3,3.71-4.3,4.57-1.3,.86-.87-1.74-1.36-2.96-.5-1.21-6.22-1.62-10.14-2.78-3.92-1.16-4.98-1.85-5.97-1.85s-2.51-.23-6.62,2.03c-4.1,2.25-3.17,3.56-2.89,6.51,.28,2.95,3.53,3.56,2.61,10.5-.94,6.95,3.45,3.74,5.31,7.99,1.87,4.26,.19,3.9-.93,4.43-1.12,.53-2.24,4.17-3.08,7.64-.84,3.48,.09,3.91-.93,3.74-1.03-.17-2.23,.61-4.19-2.26-1.96-2.86-3.54-.16-3.83-1.82-.27-1.66-2.71-4.43-1.77-8.25,.93-3.83,2.43-4.17-.94-6.17-3.35-2-2.51-2.26-4.1-6.35-1.58-4.08-1.96-4.85-5.03-8.59-3.09-3.73-2.81-2.69-1.97-6.43,.84-3.73,1.49-8.59-.38-11.2-1.86-2.61-9.59-9.81-15.95-13.2-6.34-3.38-7.64-.78-10.44-6.17-2.8-5.38-4.08-11.03-8.76-14.33-4.66-3.3-2.33-3.56-6.8-1.9-4.48,1.65-4.57,2.34-4.2,3.64,.38,1.3,1.39,3.05,.74,6.61-.66,3.55-1.58,2.43,3.08,5.2,4.67,2.79,2.71,2.18,5.03,7.3,2.34,5.12,2.71,6.08,4.58,8.17,1.87,2.08,2.52,3.9,7.18,4.95,4.66,1.04,3.91-.26,5.12,.87,1.22,1.12-3.26,1.56-2.42,2.08,.84,.53,1.87,2,5.78,4.43,3.92,2.43,7.94,4.95,8.96,6.86,1.02,1.91,4.47,9.11-.57,3.81-5.04-5.3-5.12-2.85-6.53,.79-1.4,3.65,1.29,6.43,1.12,9.12-.19,2.69-2.52,1.66-4.12,3.82-1.58,2.17-2.42,4.77-4.29,6.17-1.86,1.39-1.3-1.56-2.32-1.56s-1.4,1.3-2.71,3.81c-1.31,2.52,0,3.57,.55,6.95,.56,3.39,1.5,3.65-2.14,3.48-3.63-.17-2.8-3.57-6.15-5.82-3.36-2.26-5.31-1.48-8.12-3.22-2.8-1.72,1.21-2.16,8.21-3.03,6.99-.87,7.83-1.56,9.98-3.21,2.14-1.66,1.39-2.09,3.73-5.39,2.33-3.3,0-4.61-1.59-8.61-1.58-3.98-4.57-5.8-5.59-6.59-1.03-.78-3.36-3.12-5.4-5.38-2.06-2.26-4.21-2.61-7.75-3.48-3.54-.87-2.89-4.08-4.84-5.03-1.96-.95-3.92-3.74-8.4-7.9-4.47-4.17-2.79-7.3-4.85-10.94-2.05-3.66-4.1-6.43-8.58-6.43s-7.83,3.12-12.31,7.46c-4.48,4.34-3.54,6.43-8.76,3.13-5.22-3.3-7.08-2.95-10.82,.17-3.71,3.12-4.47,6.26-4.47,12.5s-4.48,3.65-8.02,5.38c-3.54,1.74-6.71,6.08-12.12,16.33-5.41,10.25,.37,5.38-.75,8.85-1.12,3.48,.38,6.26-4.66,10.76-5.04,4.52-2.8-.52-5.78,3.13-2.98,3.65-7.1,6.6-14.18,5.73-7.09-.87-5.04,1.91-9.52,2.95-4.47,1.04-6.9,2.61-5.78-2.44,1.12-5.04,.19-4.34-8.39-3.99-8.58,.34-11.57,2.61-10.82,1.39,.75-1.22,1.12-3.3,2.07-8.17,.94-4.86,2.23-6.43,.94-6.43s-4.12,.7-2.06-7.99c2.06-8.69,2.8-10.25,1.86-15.28-.93-5.03,.36-11.81-.74-14.77-1.12-2.94,2.23-5.89,.74-7.47-1.49-1.56-3.17-3.64-2.05-3.64s5.77,.17,11.75,1.21c5.98,1.04,12.12-.87,15.67-.52,3.53,.35,11,1.91,18.46,3.13,7.46,1.21,7.27-1.05,6.53-11.99-.75-10.94,.56-15.97-1.69-18.23-2.24-2.26-4.65-2.08-7.08-5.03-2.43-2.95-.57-7.3-5.78-8.86-5.22-1.57-11.02-.34-8.21-1.39,2.79-1.05,3.91-1.39,.93-3.65-3-2.25-3.75-4.68-1.5-5.04,2.24-.35,8.58-.35,8.58-.35,0,0,.57,3.13,3.93,1.74,3.35-1.39,7.64-2.77,6.71-5.03-.94-2.26-2.61-5.03-2.07-5.03s1.88,3.12,8.95,3.12,6.53-1.04,5.98-3.99c-.57-2.95,4.67-2.78,8.21-5.21,3.53-2.43-1.31-5.21-.56-7.46,.74-2.26,4.84-3.66,12.12-4.16,7.27-.52,5.96-1.75,5.22-2.61-.75-.87,.19-4.52,.74-9.21,.57-4.7-.55-6.26,3.18-8.51,3.73-2.25,2.61-1.39,10.26-2.09,7.64-.69,2.98-2.43,4.28-2.77,1.32-.35,10.45-2.61,12.13-3.31,1.68-.69,1.5-.51,0-3.82-1.5-3.29-3.54-5.2-5.21-20.48-1.68-15.28-1.31-15.28,8.01-18.06,9.33-2.78,7.28-1.91,6.53,6.6-.74,8.51-4.84,8.51-5.78,14.76-.93,6.25-.18,10.07,3.73,16.68,3.93,6.6,3.55,3.3,11.94,3.3s6.53,2.08,12.12,3.99c5.6,1.91,3.73-3.47,9.15-5.39,5.4-1.9,4.28,1.22,16.96-.69,4.84-.73,6.49-.9,6.86-.93-.39,.03-1.78,.04-.34-.8,2.98-1.74,3.73-4.86,8.03-5.39,4.29-.52,7.26,1.22,7.07-5.39-.18-6.59-2.61-5.55-1.86-10.59,.75-5.03,.93-2.77,1.3-6.77,.38-3.99-.55-4.69,4.85-6.08,5.41-1.39,1.68,4.86,8.2,6.25,6.53,1.39,5.6,2.43,6.72-2.6,1.11-5.03,4.67-11.64,1.48-11.29-3.17,.35-3.91-.17-7.08-4.86-3.17-4.69-5.03-5.73-2.98-5.73s8.94-1.91,18.82-1.57c9.88,.34,12.69,1.21,13.24,.17,.57-1.04-1.67-2.07,1.68-4.17,3.36-2.08,14.36,1.04,12.68-.87-1.68-1.91-11.37-4.52-17.9-3.47-6.53,1.03-22.38,2.95-24.81,2.77-2.42-.16-6.9-1.91-8.02-3.12-1.11-1.22-4.67-2.09-4.67-7.82s2.06-7.99-1.3-13.54c-3.36-5.56,6.15-10.25,12.68-16.15,6.53-5.9,4.85-10.77,8.76-11.12,3.93-.35,5.43-2.43,3.55-4.35-1.86-1.9-8.76-8.51-12.13-9.2-3.35-.69-8.39-4.52-13.61,4.52-5.21,9.03,.37,9.9,1.31,14.58,.94,4.69-7.28,8.17-13.44,12.5-6.15,4.34-8.38,3.3-10.26,14.41-1.86,11.12-3.73,11.47,3.17,15.28,6.9,3.83,8.21,5.73,5.04,9.03-3.17,3.31-9.89,3.13-13.99,10.95-4.1,7.81-2.42,11.63-4.1,15.1-1.68,3.48-6.9,5.03-8.4,8.51-1.48,3.48-1.48,10.07-7.83,9.03-6.34-1.05-2.8-9.56-5.6-13.91-2.8-4.33-5.03-7.98-8.39-13.36-3.35-5.38-.74-10.59-3.92-13.38-3.16-2.77-3.92-8.33-3.92-8.33l-1.11,2.61c-1.12,2.61-.56,4.16-6.9,11.99-6.35,7.81-15.86,8.33-20.52,6.42-4.66-1.91-3.91-6.42-3.91-12.16s-1.12-13.37-.19-22.4c.93-9.03,3.55-8.34,13.44-14.24,9.88-5.9,10.06-5.56,12.49-9.38,2.42-3.81,9.52-9.21,13.61-12.68,4.11-3.47,11.2-16.67,14.92-26.05,3.74-9.37,10.63-15.11,17.34-25.18,6.72-10.07,18.65-18.93,33.94-25.35,15.29-6.43,12.69-7.12,16.22-12.17,3.55-5.03,5.05-2.08,11.01-3.3,5.98-1.21,5.03,0-.94,5.9-5.96,5.9-8.57,12.16-3.54,7.47,5.04-4.69,8.94-10.25,16.78-9.9,7.84,.34,4.66,0,12.31,3.48,7.65,3.47,8.95,3.81,4.67,6.59-4.31,2.78-11.58,2.09-11.58,2.09,0,0,2.43,5.73,9.51,6.6,7.09,.87,11-5.56,15.67-3.13,4.67,2.43,5.97,4.17-.38,3.65-6.34-.52-8.2,3.47-.37,6.25,7.84,2.78,8.58,3.12,18.83,4.52,10.26,1.39,14.74,8.85,22.56,12.16,7.85,3.3,16.97,.52,14.37,7.65-2.62,7.12,2.04,14.06-11.57,17.36-13.61,3.3-13.25-1.05-24.61-4.53-11.38-3.47-19.39-6.94-19.39-6.94,0,0,2.98,4,8.2,8.86,5.21,4.85,5.78,9.37,5.21,18.23-.56,8.85-2.98,11.29,5.98,15.63,8.95,4.35,7.65,3.12,10.44,2.43,2.8-.7,7.46-1.57,6.34-2.96-1.11-1.39-2.05-3.98-5.03-5.38-2.98-1.39-3.16-4.69-.18-6.26,2.98-1.57,5.77,1.39,12.31,1.04,6.53-.34,0-2.43,3.17-5.72,3.18-3.3,3.37-8.85,11.01-11.82,7.65-2.95,15.84,1.39,17.91-1.9,2.05-3.3,4.29-7.12,0-12.16-4.3-5.04-7.65-6.76-5.04-9.21,2.61-2.43,7.84-8.85,10.26-5.21,2.42,3.65,8.58,7.65,.75,6.94-7.84-.69-2.44,11.64,4.66,10.94,7.08-.7,6.53-2.95,12.31-5.73,5.77-2.79,17.15-11.99,25.17-14.77,8.02-2.78,9.7-2.08,12.86-.69,3.17,1.39,3.17,3.99,11.95,2.25,8.76-1.74,11.37-3.82,19.58-5.21,8.21-1.38-.56,2.96,3.17,4.16,3.74,1.22,4.11,2.26,6.91,.36,2.8-1.92,11.75-5.04,7.65-8.17-4.12-3.13-7.1-5.21-7.1-5.21,0,0,2.98-6.59,10.82-6.07,7.83,.52,19.76,7.81,27.42,13.03,7.64,5.21,16.97,16.32,16.97,16.32,0,0,3.34-5.72,.55-15.28-2.8-9.54-9.88-7.29-9.88-16.32s-6.53-6.61-4.29-13.03c2.24-6.42,8.58-8.86,10.26-17.03,1.66-8.15,3.17-14.92,8.94-14.92s18.27,1.73,18.27,1.73c0,0,0,7.47-4.67,18.59-4.66,11.11,2.43,12.33,1.31,25.88-1.11,13.54-1.31,15.28,1.86,18.4,3.16,3.12,9.15,6.95,6.9,12.85-2.24,5.91-3.36,9.56-11.75,12.86-8.4,3.3-19.02,1.39-15.12,4,3.94,2.59,8.96,4.85,14.55,5.72,5.6,.87,2.8-.34,7.27-3.99,4.49-3.65,14.55-10.95,14.18-14.42-.37-3.46-5.78-8.85-2.05-11.46,3.73-2.6,5.21-6.59,11-3.3,5.79,3.3,11.38,15.63,11.38,15.11s-1.12-12.16-8.02-19.09c-6.9-6.95-18.27-.36-18.27-6.43s3.16-14.42,2.42-21.02c-.75-6.59-3.34-13.2,.94-18.92,4.29-5.74,4.48-10.25,4.48-10.25,0,0,1.86,5.38,.37,12.15-1.48,6.77,.75,10.77,3.92,10.77s17.34,.18,9.7-2.08c-7.64-2.26-9.88-4.35-2.24-8.51,7.65-4.16,7.27-1.39,18.45,1.21,11.2,2.61,13.8,4.52,17.54,4.35,3.73-.17,3.17-.52,1.86-3.82-1.29-3.3-2.98-5.56-6.53-7.82-3.55-2.26-5.96,.52-7.08-2.95-1.11-3.48-3.16-12.16-4.11-15.45-.93-3.3,2.8-.7,8.76-.7s22.19-.87,34.7-1.21c12.49-.34,.19-13.37-.75-22.58-.93-9.2,23.13-9.55,34.87-11.28,11.76-1.74,25.37-1.21,47.37-6.43,22-5.21,7.84-4.34,11-10.59,3.18-6.26,8.58-7.3,15.11-7.3s12.5,1.21,10.08,2.08c-2.43,.87-9.7,4.51,1.67,6.95,11.38,2.43,8.4,2.25,2.43,4.34-5.96,2.08-.93,5.9,10.62,5.9s4.66-1.04,2.8-4.86c-1.85-3.82,1.69-2.44,11.2-.87,9.5,1.56,13.24,3.13,18.46,7.98,5.21,4.87,6.15,3.66,8.01,10.43,1.88,6.77-.18,5.72-8.2,11.98-8.03,6.26-12.86,6.26-24.43,13.55-11.57,7.29-8.77,11.11-15.1,15.97-6.34,4.86-4.66,3.48,8.76,0,13.43-3.48,20.7-5.73,27.61-5.03,6.89,.69,10.25,3.3,15.47,3.3s-.37,.87,16.04,.87,13.97,0,8.01,4.69c-5.97,4.69,1.12,6.08,8.4,6.08s16.22,.34,22.93-.7c6.73-1.04,.94-6.08,8.96-6.43,8.01-.34,10.63-1.04,19.2-1.04s5.97,3.48,8.95,6.6c2.98,3.12,7.08,5.21,4.29,11.46-2.79,6.26-4.29,6.42-2.62,14.93,1.69,8.51,5.98,9.72,11.2,11.29,5.21,1.57,5.21-7.63,10.26-10.76,5.03-3.12,6.16,6.25,11.94,4.86,5.79-1.38,12.31-.7,17.34,.86,5.03,1.57,9.32,2.44,16.41,.88,7.08-1.57,4.84-4.34,2.43-8.68-2.43-4.35-2.62-4,1.86-8.51,4.48-4.52,7.46-2.26,22,1.56,14.55,3.82,9.89,3.82,18.09,6.08,8.21,2.26,5.6,1.74,18.09,7.47,12.49,5.73,10.08,12.5,15.85,16.14,5.78,3.66,6.16,0,17.73-1.03,11.55-1.05,11.37,1.39,24.06,4.69,12.67,3.3,9.31,7.46,9.31,11.12s-3.53,6.43,4.3,8.16c7.83,1.74,11,3.3,17.72,1.57,6.71-1.74,.75,1.73,15.67,1.9,14.91,.18,9.89-1.73,14.36,1.39,4.47,3.13,5.59,9.38,12.86,8.69,7.26-.7,6.71-.53,3.73-6.95-2.98-6.43-4.85-7.48-.56-7.3,4.28,.17,13.05,2.08,29.27,4.69,16.23,2.61,16.78,5.56,30.04,13.9,13.23,8.34,16.95,9.03,26.66,16.5,3.7,2.85,4.43,3.66,4.51,3.88,.25,0,1.28,.3,5.01,2.02,10.43,4.86,8.58,3.3,17.53,7.64,8.94,4.34,16.58,10.42,16.58,10.42,0,0,.57,.87-6.14,1.57Zm-870.1,176.51s-.99,1.33,4.23-2.85c5.22-4.16-2.44-.17-5.42-1.04-2.98-.87-3.92-2.26-2.98-6.07,.93-3.83-.38-3.83-3.55-8.86,0,0-1.68-1.03-5.21,1.04-3.54,2.09-5.59-2.07-9.89-.52-4.29,1.56-8.95,.87-11.57,7.3-2.6,6.43-5.59,2.25-6.52,7.46-.94,5.21-8.96,7.99-8.96,7.99,0,0,3.18,3.13,5.6,6.08,2.42,2.95,.75,1.05,3.17,10.77,2.43,9.72,4.12,8.85,7.47,10.24,3.36,1.38,8.58,4.7,8.58,4.7,0,0-3.17-1.92-3.17,3.3s-5.04,8.85-4.48,16.49c.56,7.64-6.89,14.76-.93,15.46,5.96,.69,4.1,3.3,10.62,5.03,6.53,1.74,10.25,2.95,19.78,2.95s4.28-3.65,2.98-9.03c-1.31-5.38-2.05-8.85-2.42-14.76-.38-5.9-2.61-4.35-4.11-7.98-1.49-3.66,.75-5.74,5.21-5.74s5.05-.17,2.62-4.16c-2.43-4-.92-5.56-3.93-7.3-2.97-1.74-4.28,5.74-4.28,5.74,0,0-1.86-1.74-1.11-9.03,.75-7.3,1.3-3.82-.93-5.21-2.25-1.39-3.56,.34-6.53-4.51-2.98-4.87-.37-3.82-3.91-9.72-3.55-5.9-1.69-2.79,2.23-2.79s1.86-.87,0-2.77c-1.86-1.92-3.16-4.87,1.86-4.52,5.04,.35,11.57,1.39,13.99,1.57,2.43,.16,1.57,.75,1.57,.75ZM859.15,488.39c-1.72,2.97,2.92,6.77,6.28,5.59,3.36-1.18,4.46,.13,6.37-1.4,1.91-1.52,2.09-3.76-.18-5.97-2.27-2.21-1.35-3.49-1.73-3.73-4.29-2.62-9.01,2.54-10.74,5.51Zm921.9-191.48c-5.04,.17-10.64,.35-5.97,1.91,4.67,1.56,2.8,9.38,11.74,5.03,8.95-4.35,7.09-4.69,13.25-7.3,6.15-2.6,2.59-1.35-4.85-3.3-4.66-1.21-9.14,3.48-14.17,3.65Z"/>
  <path class="cls-3" d="M1357.66,1260.43c-12.57,0-22.62,10.05-22.62,22.62,0,4.35,1.3,7.7,3.55,11.11l16.69,25.33h0c.51,.77,1.38,1.26,2.38,1.26s1.88-.51,2.38-1.26l16.69-25.33c2.25-3.4,3.55-6.76,3.55-11.11,0-12.57-10.05-22.62-22.62-22.62Zm0,35.18c-6.94,0-12.57-5.63-12.57-12.58s5.63-12.58,12.57-12.58,12.57,5.63,12.57,12.58-5.63,12.58-12.57,12.58Zm0-20.1c-4.17,0-7.54,3.37-7.54,7.54s3.37,7.54,7.54,7.54,7.54-3.37,7.54-7.54-3.37-7.54-7.54-7.54Z"/>
  <path class="cls-3" d="M1380.28,1150.5c-12.57,0-22.62,10.05-22.62,22.62,0,4.35,1.3,7.7,3.55,11.11l16.69,25.33h0c.51,.77,1.38,1.26,2.38,1.26s1.88-.51,2.38-1.26l16.69-25.33c2.25-3.4,3.55-6.76,3.55-11.11,0-12.57-10.05-22.62-22.62-22.62Zm0,35.18c-6.94,0-12.57-5.63-12.57-12.58s5.63-12.58,12.57-12.58,12.57,5.63,12.57,12.58-5.63,12.58-12.57,12.58Zm0-20.1c-4.17,0-7.54,3.37-7.54,7.54s3.37,7.54,7.54,7.54,7.54-3.37,7.54-7.54-3.37-7.54-7.54-7.54Z"/>
  <path class="cls-3" d="M1562.85,881.49c-12.57,0-22.62,10.05-22.62,22.62,0,4.35,1.3,7.7,3.55,11.11l16.69,25.33h0c.51,.77,1.38,1.26,2.38,1.26s1.88-.51,2.38-1.26l16.69-25.33c2.25-3.4,3.55-6.76,3.55-11.11,0-12.57-10.05-22.62-22.62-22.62Zm0,35.18c-6.94,0-12.57-5.63-12.57-12.58s5.63-12.58,12.57-12.58,12.57,5.63,12.57,12.58-5.63,12.58-12.57,12.58Zm0-20.1c-4.17,0-7.54,3.37-7.54,7.54s3.37,7.54,7.54,7.54,7.54-3.37,7.54-7.54-3.37-7.54-7.54-7.54Z"/>
  <path class="cls-3" d="M1550.28,891.51c-12.57,0-22.62,10.05-22.62,22.62,0,4.35,1.3,7.7,3.55,11.11l16.69,25.33h0c.51,.77,1.38,1.26,2.38,1.26s1.88-.51,2.38-1.26l16.69-25.33c2.25-3.4,3.55-6.76,3.55-11.11,0-12.57-10.05-22.62-22.62-22.62Zm0,35.18c-6.94,0-12.57-5.63-12.57-12.58s5.63-12.58,12.57-12.58,12.57,5.63,12.57,12.58-5.63,12.58-12.57,12.58Zm0-20.1c-4.17,0-7.54,3.37-7.54,7.54s3.37,7.54,7.54,7.54,7.54-3.37,7.54-7.54-3.37-7.54-7.54-7.54Z"/>
  <path class="cls-3" d="M734.95,695.55c-12.57,0-22.62,10.05-22.62,22.62,0,4.35,1.3,7.7,3.55,11.11l16.69,25.33h0c.51,.77,1.38,1.26,2.38,1.26s1.88-.51,2.38-1.26l16.69-25.33c2.25-3.4,3.55-6.76,3.55-11.11,0-12.57-10.05-22.62-22.62-22.62Zm0,35.18c-6.94,0-12.57-5.63-12.57-12.58s5.63-12.58,12.57-12.58,12.57,5.63,12.57,12.58-5.63,12.58-12.57,12.58Zm0-20.1c-4.17,0-7.54,3.37-7.54,7.54s3.37,7.54,7.54,7.54,7.54-3.37,7.54-7.54-3.37-7.54-7.54-7.54Z"/>
  <path class="cls-3" d="M567,767.69c-12.57,0-22.62,10.05-22.62,22.62,0,4.35,1.3,7.7,3.55,11.11l16.69,25.33h0c.51,.77,1.38,1.26,2.38,1.26s1.88-.51,2.38-1.26l16.69-25.33c2.25-3.4,3.55-6.76,3.55-11.11,0-12.57-10.05-22.62-22.62-22.62Zm0,35.18c-6.94,0-12.57-5.63-12.57-12.58s5.63-12.58,12.57-12.58,12.57,5.63,12.57,12.58-5.63,12.58-12.57,12.58Zm0-20.1c-4.17,0-7.54,3.37-7.54,7.54s3.37,7.54,7.54,7.54,7.54-3.37,7.54-7.54-3.37-7.54-7.54-7.54Z"/>
  <path class="cls-3" d="M233.37,502.14c-12.57,0-22.62,10.05-22.62,22.62,0,4.35,1.3,7.7,3.55,11.11l16.69,25.33h0c.51,.77,1.38,1.26,2.38,1.26s1.88-.51,2.38-1.26l16.69-25.33c2.25-3.4,3.55-6.76,3.55-11.11,0-12.57-10.05-22.62-22.62-22.62Zm0,35.18c-6.94,0-12.57-5.63-12.57-12.58s5.63-12.58,12.57-12.58,12.57,5.63,12.57,12.58-5.63,12.58-12.57,12.58Zm0-20.1c-4.17,0-7.54,3.37-7.54,7.54s3.37,7.54,7.54,7.54,7.54-3.37,7.54-7.54-3.37-7.54-7.54-7.54Z"/>
</svg>